<svg width="36" height="33" viewBox="0 0 36 33" fill="none" xmlns="http://www.w3.org/2000/svg">
<path d="M32.6562 32.1986H3.10555C1.78262 32.1986 0.705811 31.1372 0.705811 29.8331V9.84762C0.705811 9.57468 0.936555 9.34723 1.21345 9.34723H34.5483C34.8252 9.34723 35.056 9.57468 35.056 9.84762V29.8331C35.056 31.1372 33.9792 32.1986 32.6562 32.1986Z" fill="#FAF4EE"/>
<path d="M32.2562 32.1984H3.55163C2.09025 32.1984 0.905762 31.0308 0.905762 29.5903V26.0269C0.905762 25.6175 1.24419 25.2839 1.65953 25.2839H34.1176C34.5329 25.2839 34.8713 25.6175 34.8713 26.0269V29.5903C34.8713 31.0308 33.6869 32.1984 32.2255 32.1984H32.2562Z" fill="#E0D7D2"/>
<path d="M24.6416 4.40374C24.7493 2.25052 23.0572 0.506714 20.8882 0.506714H14.2273C12.043 0.506714 10.2739 2.25052 10.2739 4.40374V32.1985H13.1505V4.16112C13.1505 2.93288 14.135 1.85627 15.3811 1.8411C15.3811 1.8411 15.3965 1.8411 15.4118 1.8411H19.5037C20.7651 1.8411 21.7958 2.85706 21.7958 4.11563V32.1985H24.6724V4.4189L24.6416 4.40374Z" fill="#72A16D"/>
<path d="M34.5637 9.33228V29.803C34.5637 30.8493 33.7023 31.6833 32.6562 31.6833H3.12094C2.05951 31.6833 1.21345 30.8341 1.21345 29.803V9.33228H0.705811V29.803C0.705811 31.1222 1.798 32.1989 3.13632 32.1989H32.6562C33.9945 32.1989 35.0867 31.1222 35.0867 29.803V9.33228H34.5791H34.5637Z" fill="#72A16D"/>
</svg>
