<svg width="360" height="360" viewBox="0 0 360 360" fill="none" xmlns="http://www.w3.org/2000/svg">
<g clip-path="url(#clip0_643_1257)">
<g filter="url(#filter0_d_643_1257)">
<mask id="mask0_643_1257" style="mask-type:luminance" maskUnits="userSpaceOnUse" x="83" y="220" width="552" height="492">
<path d="M359 711.024C511.431 711.024 635 601.104 635 465.512C635 329.919 511.431 220 359 220C206.569 220 83 329.919 83 465.512C83 601.104 206.569 711.024 359 711.024Z" fill="white"/>
</mask>
<g mask="url(#mask0_643_1257)">
<path d="M944.138 218.387H-127.674V729.518H944.138V218.387Z" fill="#88CCF2"/>
<path d="M408.31 357.341C679.529 357.341 899.396 327.098 899.396 289.792C899.396 252.485 679.529 222.243 408.31 222.243C137.09 222.243 -82.7764 252.485 -82.7764 289.792C-82.7764 327.098 137.09 357.341 408.31 357.341Z" fill="url(#paint0_radial_643_1257)"/>
<path d="M430.094 357.341C710.998 357.341 938.716 327.098 938.716 289.792C938.716 252.485 710.998 222.243 430.094 222.243C149.19 222.243 -78.5278 252.485 -78.5278 289.792C-78.5278 327.098 149.19 357.341 430.094 357.341Z" fill="url(#paint1_radial_643_1257)"/>
<path d="M331.5 413.6C333.676 411.465 335.826 409.176 337.942 406.972C341.223 403.554 345.099 401.672 349.33 399.322C351.601 398.055 354.89 397.087 357.412 396.119C359.354 395.374 361.798 394.46 363.87 394.122C365.83 393.8 368.722 393.977 370.743 394.138C372.254 394.261 373.834 394.722 375.258 395.205C377.633 396.012 378.332 397.894 379.109 399.967C380.025 402.394 379.921 404.36 380.05 406.834C380.18 409.168 381.276 411.357 381.743 413.6C381.959 414.637 381.518 415.743 381.769 416.795C382.002 417.763 382.321 418.769 382.58 419.729C383.426 422.901 387.225 426.442 391.292 425.044C395.1 423.73 394.91 419.115 396.654 416.526C397.379 415.451 398.199 414.737 398.717 413.623C399.296 412.394 399.969 411.135 400.522 409.875C401.895 406.741 401.843 402.817 404.338 400.267C406.834 397.717 409.113 394.937 412.895 394.238C415.019 393.846 416.089 393.331 418.032 392.356C419.604 391.573 421.244 391.265 422.85 390.582C425.829 389.315 428.738 388.508 431.795 387.433C435.197 386.242 437.977 384.43 441.025 382.64C444.608 380.528 448.226 379 451.308 376.196C453.985 373.762 457.361 372.302 459.856 369.706C461.186 368.324 462.412 366.726 463.5 365.19C464.588 363.654 466.245 361.719 467.091 359.998C468.395 357.333 467.497 353.34 467.523 350.429C467.566 346.466 466.168 343.194 463.888 339.799C459.761 333.662 452.793 331.781 445.687 329.361C443.805 328.724 441.776 328.47 439.937 327.741C438.754 327.272 437.908 326.665 436.613 326.443C433.479 325.913 429.464 326.497 426.243 326.481C422.237 326.458 418.507 327.195 414.483 327.195C411.177 327.195 407.87 327.195 404.563 327.195C398.683 327.195 391.879 328.048 386.327 326.297C383.107 325.275 380.197 323.655 376.994 322.664C373.627 321.627 370.441 320.199 367.237 318.716C362.005 316.297 356.704 314.162 351.083 312.249C345.332 310.299 338.175 306.236 332.26 309.891C329.748 311.443 327.321 313.002 324.498 314.239C322.055 315.306 319.404 317.027 316.771 317.687C314.154 318.348 310.347 318.017 307.636 317.864C306.03 317.772 304.536 317.295 303.327 316.282C302.403 315.506 301.851 314.423 300.944 313.632C299.934 312.741 298.768 312.318 297.568 311.696C294.589 310.145 291.274 309.116 287.837 308.547C286.447 308.317 285.256 307.964 283.909 307.549C282.242 307.034 280.965 307.119 279.22 307.057C275.18 306.904 271.312 305.606 267.271 305.575C264.586 305.552 260.527 305.936 259.44 303.048C258.473 300.475 260.424 296.62 261.253 294.124C262.384 290.713 261.84 286.796 261.84 283.264C261.84 281.052 262.643 277.434 261.149 275.506C259.837 273.817 257.411 273.41 255.321 273.164C253.447 272.941 251.876 272.081 250.072 271.797C247.827 271.436 245.625 271.013 243.302 271.029C240.583 271.044 237.025 270.506 234.314 270.975C231.025 271.543 229.013 275.821 227.614 278.241C226.431 280.284 224.912 283.179 222.831 284.546C219.766 286.558 216.139 287.649 213.057 289.753C210 291.835 206.78 293.571 203.542 295.376C202.031 296.22 200.27 296.474 198.672 297.142C197.455 297.649 196.479 298.44 195.288 298.962C193.82 299.607 192.404 299.769 191.022 300.606C188.864 301.912 187.422 303.225 185.721 304.915C184.685 305.936 183.519 306.888 182.319 307.741C180.73 308.87 179.763 310.214 178.27 311.397C175.377 313.701 172.58 315.037 168.789 315.875C164.628 316.796 160.233 315.69 156.184 316.735C152.903 317.58 148.637 318.724 146.021 320.705C143.819 322.372 141.497 323.762 139.252 325.406C136.109 327.718 133.553 330.083 129.884 331.688C127.958 332.526 126.352 333.708 124.254 334.246C121.845 334.86 119.341 335.314 116.915 335.867C112.279 336.934 108.29 338.808 103.8 340.129C99.4397 341.412 95.6234 343.647 91.4186 345.214C89.9076 345.782 88.2412 346.174 86.7475 346.773C84.0018 347.879 82.9657 350.191 79.6847 350.298C77.8111 350.36 75.8339 350.329 73.9603 350.283C71.6722 350.221 70.9297 349.691 69.1683 348.478C65.4642 345.943 63.5906 343.409 62.261 339.484C61.2853 336.589 59.4807 333.716 56.3638 332.372C53.2469 331.028 49.4047 330.79 46.0719 330.805C39.4149 330.836 31.5924 330.06 25.4276 332.718C22.8287 333.839 20.4457 335.652 17.8381 336.865C16.0163 337.718 15.0148 338.762 13.521 339.991C9.48025 343.301 4.75735 345.851 1.12237 349.592C-1.91686 352.725 -4.80068 356.243 -7.58088 359.561C-11.1813 363.862 -13.8838 368.647 -15.4034 373.808C-16.7331 378.316 -17.8901 384.03 -15.3085 388.301C-12.5542 392.832 -10.033 397.256 -5.36189 400.536C-1.69237 403.109 3.88531 403.508 8.28011 402.333C13.2793 400.989 15.3342 394.944 15.7055 390.743C16.1027 386.25 16.5603 382.01 16.4826 377.456C16.4135 373.516 17.7259 368.823 22.1984 366.926C24.8664 368.769 23.7784 373.639 23.7871 376.227C23.7871 379.015 23.9857 381.511 24.5814 384.261C25.0131 386.219 25.3844 387.586 26.3773 389.437C27.4911 391.511 29.1144 393.9 29.3907 396.242C29.736 399.145 28.1042 401.457 25.747 403.231C22.0861 405.989 16.7675 407.463 12.4159 409.138C8.06425 410.812 3.36726 412.394 -0.949829 414.337C-2.74574 415.144 -3.86819 415.958 -5.92312 416.342C-9.62718 417.033 -13.5557 417.279 -17.303 417.786C-21.0502 418.293 -24.288 418.846 -27.9575 418.7C-33.2762 418.485 -36.0391 411.987 -38.5776 408.546C-40.8225 405.505 -42.8256 404.622 -47.2463 404.952C-54.404 405.489 -62.8482 410.489 -66.7768 415.85C-68.1842 417.77 -67.243 419.268 -66.0947 421.227C-65.4558 422.317 -64.6182 423.646 -63.7289 424.606C-62.3215 426.127 -60.6465 426.749 -58.9542 427.993C-56.6057 429.721 -54.3522 432.379 -52.3232 434.46C-50.1215 436.71 -48.7486 439.598 -48.0752 442.417C-47.4621 444.982 -47.5226 445.504 -48.8695 448.001C-50.3978 450.842 -52.7117 452.832 -54.8875 455.343C-58.0045 458.945 -60.8019 462.002 -63.0641 466.157C-65.0586 469.813 -68.4604 474.928 -64.6787 478.33C-63.4008 479.475 -61.9503 481.057 -60.4307 481.91C-59.0837 482.662 -58.7297 482.655 -57.1583 482.025C-54.3954 480.911 -51.6929 479.206 -49.1976 477.685C-45.5972 475.489 -41.2628 473.446 -38.3272 470.543C-35.7197 467.97 -32.2142 465.596 -28.6914 464.007C-25.8163 462.709 -22.1467 462.724 -19.0471 462.063C-15.4725 461.295 -14.4451 460.535 -11.6303 463.093C-9.24728 465.258 -7.17508 468.615 -3.81638 469.69C0.233046 470.98 6.16473 470.781 7.53757 466.211C8.34918 463.515 7.11448 460.804 8.29736 458.062C9.79971 454.552 13.5038 452.225 17.4841 454.337C19.9017 455.62 21.8617 457.993 23.8302 459.736C25.6866 461.38 27.3616 462.747 28.6654 464.767C31.1175 468.561 35.8231 472.094 40.9518 469.521C44.2069 467.885 46.0201 464.129 48.2391 461.633C49.94 459.721 51.5632 458.354 53.739 456.772C55.9148 455.189 62.2005 449.176 65.9046 450.428C69.3841 451.603 71.56 459.352 70.6361 462.301C69.6345 465.497 65.6715 466.779 63.4007 469.053C62.2092 470.251 61.0435 472.301 60.9745 473.953C60.8881 476.011 62.6236 477.34 60.7586 479.26C58.6001 481.479 52.9447 482.969 50.0263 483.945C46.7022 485.059 43.6284 485.427 40.1488 485.842C34.0704 486.564 28.2941 486.602 22.2934 485.435C18.8483 484.767 15.8177 484.329 12.5108 483.092C8.9622 481.771 5.05092 480.642 1.27779 480.012C-2.59896 479.367 -6.59658 479.229 -10.4388 478.446C-14.281 477.662 -18.0023 476.234 -22.0949 476.234C-28.4324 476.234 -33.7079 477.993 -38.6207 481.433C-41.1419 483.2 -43.7063 484.022 -46.5901 485.243C-49.8711 486.633 -52.9621 488.092 -56.3381 489.283C-61.1991 490.995 -63.3749 493.845 -65.8961 497.7C-68.1151 501.095 -69.3929 504.636 -69.9455 508.53C-70.265 510.773 -70.9039 513.046 -70.9557 515.281C-71.0248 518.107 -70.9385 520.941 -70.9385 523.768C-70.9385 527.992 -71.5601 532.6 -70.7744 536.763C-70.0146 540.795 -68.6418 545.15 -65.214 548.115C-62.028 550.88 -58.1599 552.531 -54.145 554.059C-44.8287 557.592 -34.5022 556.932 -24.5816 556.932C-21.9568 556.932 -19.332 556.532 -16.9576 557.6C-14.989 558.483 -12.6923 559.359 -10.8532 560.442C-9.24727 561.386 -8.78103 562.646 -7.77084 563.998C-6.89878 565.165 -5.94038 565.734 -5.31872 567.116C-4.60208 568.721 -4.43805 570.449 -3.73868 572.07C-2.81482 574.197 -2.09818 576.448 -1.34701 578.629C1.08783 585.664 4.76599 592.054 7.64117 598.867C9.09171 602.315 9.25576 605.818 9.19533 609.45C9.16079 611.808 9.45435 613.89 9.84289 616.201C10.2746 618.728 9.6184 621.301 10.2055 623.805C11.7251 630.341 11.7338 637.177 15.6451 643.16C18.5202 647.561 24.1324 650.679 29.6497 651.877C35.2015 653.083 38.7587 650.986 43.4816 648.659C49.5514 645.671 57.02 642.499 59.8175 636.478C60.7845 634.389 61.0263 632.092 61.8292 629.957C62.8912 627.131 63.7892 624.65 64.4281 621.716C64.9203 619.435 65.9737 618.022 67.4846 616.171C69.3842 613.851 70.9642 611.394 72.5356 608.89C76.1015 603.214 78.3982 596.509 78.8472 590.011C79.1321 585.887 79.6416 581.947 79.6416 577.799C79.6416 573.483 78.8472 568.859 80.9799 564.873C83.1125 560.887 85.3056 555.227 88.811 551.893C90.7796 550.019 93.7153 548.737 95.8997 547.047C98.3691 545.142 101.089 542.777 102.997 540.388C104.258 538.814 107.038 533.975 105.553 532.408L102.781 531.709C100.208 531.31 97.6524 530.841 95.114 530.304C91.1077 529.321 86.8511 528.046 83.0607 526.54C79.7883 525.242 76.8009 523.606 73.4336 522.47C71.0592 521.663 67.6142 521.272 66.7766 518.76C66.0341 516.541 66.3449 513.299 66.06 510.965C65.801 508.86 65.1189 505.527 66.1118 503.522C68.0286 503.491 70.4375 506.172 71.6636 507.001C74.0984 508.645 76.5591 510.212 78.9076 511.955C84.4335 516.072 91.4186 519.789 98.3691 521.725C102.747 522.938 107.444 523.453 111.959 524.014C115.896 524.497 119.721 525.457 122.251 522.017C125.23 517.954 124.962 512.608 124.988 507.977C125.006 504.613 124.885 501.833 122.657 498.883C121.655 497.562 113.349 492.255 114.187 491.18C117.891 491.787 120.378 495.45 122.631 497.762C124.323 499.498 126.128 501.502 128.2 502.931C132.673 506.018 139.83 507.309 145.201 508.561C148.629 509.359 151.987 509.728 155.027 511.448C162.167 515.496 166.156 523.468 169.584 530.119C171.941 534.689 172.398 539.528 175.23 543.86C178.322 548.591 181.611 544.643 183.968 541.471C187.621 536.556 187.923 530.573 190.53 525.335C191.765 522.861 194.088 520.857 196.35 519.121C200.183 516.172 204.25 513.176 208.368 510.557C211.572 508.522 213.126 511.21 214.792 513.63C216.744 516.448 218.833 519.206 220.361 522.232C221.587 524.666 222.269 526.272 224.886 527.608C227.502 528.944 231.56 530.265 233.442 532.708C234.944 534.659 233.787 536.824 234.383 538.883C235.212 541.732 238.105 540.872 240.608 541.271C242.905 541.632 243.51 541.993 245.78 541.187C248.949 540.058 251.971 538.56 254.216 536.241C257.937 532.385 259.776 527.723 259.241 522.547C259.017 520.365 257.989 517.984 259.129 515.834C261.287 511.763 267.573 511.326 271.605 509.789C275.223 508.415 278.953 506.663 281.75 504.16C285.273 501.003 288.338 495.796 290.091 491.618C291.524 488.2 291.403 484.091 291.611 480.535C291.921 475.151 291.775 469.759 291.775 464.367C291.775 459.705 289.884 453.323 295.884 451.15C297.974 452.678 298.328 456.695 298.898 458.914C299.269 460.389 299.632 461.833 300.107 463.285C300.892 465.681 300.124 467.056 299.554 469.414C299.01 471.625 298.898 473.891 298.432 476.126C298.129 477.532 297.611 479.052 299.312 479.805C301.013 480.558 304.225 478.868 305.693 479.966C307.843 481.579 305.442 486.103 304.812 487.578C303.681 490.235 300.84 494.436 301.609 497.416C304.855 498.791 309.138 494.943 311.452 493.407C315.294 490.857 318.126 488.315 320.026 484.344C321.165 481.963 321.554 479.559 322.184 477.063C322.538 475.658 323.194 474.483 321.614 473.476C320.785 473.507 319.991 473.384 319.223 473.108C318.73 472.486 318.411 471.794 318.256 471.042C317.668 469.406 317.703 467.762 316.935 466.172C316.252 464.759 315.363 463.561 314.249 462.394C312.738 460.811 312.263 459.452 311.219 457.678C310.364 456.219 309.302 455.996 310.545 454.506C311.616 453.231 316.14 451.918 317.677 451.226C321.321 449.59 325.465 448.569 328.893 446.61C333.331 444.068 336.957 440.42 340.238 436.81C342.224 434.629 345.263 431.956 346.861 429.437C348.458 426.918 346.248 423.193 345.229 420.873C343.113 416.035 338.744 413.907 333.072 413.6" fill="#80BA9B"/>
<path d="M122.614 323.578C122.614 316.973 121.811 310.475 126.249 304.822C128.355 302.134 131.826 300.936 134.779 299.093C137.015 297.703 139.096 295.998 141.419 294.753C142.455 294.193 143.62 293.916 144.674 293.371C146.047 292.664 147.1 291.627 148.499 290.975C151.685 289.492 153.325 288.655 155.052 285.583C156.356 283.271 156.485 280.03 154.241 278.21C151.167 275.714 148.482 275.307 144.415 275.33C142.498 275.337 139.847 274.961 137.991 275.468C134.935 276.305 133.009 277.764 130.894 279.846C128.934 281.773 127.155 283.778 124.867 285.406C122.432 287.142 120.343 288.655 118.573 290.975C117.511 292.365 116.164 293.809 115.292 295.299C114.566 296.535 114.377 297.81 113.755 299.093C112.909 300.859 111.406 302.134 111.225 304.1C111.087 305.521 111.286 307.027 111.286 308.455C111.286 310.199 110.854 312.365 111.406 314.054C111.829 315.329 113.012 316.65 113.712 317.848C115.43 320.767 118.322 322.203 120.999 324.292" fill="#80BA9B"/>
<path d="M367.927 291.889C366.555 290.637 364.621 290.345 363.11 289.308C361.875 288.463 361.245 286.835 359.837 286.236C359.043 285.898 358.249 285.821 357.42 285.429C356.314 284.899 355.399 284.492 354.208 283.993C351.229 282.764 348.449 282.35 345.332 281.459C342.595 280.675 340.937 279.6 337.958 279.654C336.318 279.684 334.513 279.385 332.933 279.777C330.213 280.452 327.174 282.542 325.024 284.078C322.106 286.167 320.957 289.308 320.957 292.503C320.957 294.392 320.543 296.535 322.192 297.987C326.432 301.735 330.611 296.382 334.738 296.197C338.865 296.013 341.68 296.773 345.263 298.171C346.843 298.793 348.423 299.531 350.124 299.845C352.291 300.253 355.209 299.807 357.42 299.807C358.844 299.807 360.916 300.191 362.263 299.715C363.61 299.239 363.809 297.872 364.69 297.057C366.27 295.614 366.917 295.575 367.124 293.325" fill="#80BA9B"/>
<path d="M327.365 415.082C329.48 413.016 331.552 410.797 333.599 408.661C336.776 405.351 340.532 403.531 344.633 401.25C346.835 400.029 350.021 399.084 352.464 398.147C354.347 397.425 356.712 396.542 358.724 396.212C360.624 395.897 363.421 396.066 365.381 396.219C366.84 396.334 368.377 396.788 369.75 397.256C372.047 398.032 372.729 399.86 373.48 401.864C374.369 404.215 374.266 406.119 374.395 408.516C374.516 410.781 375.578 412.893 376.036 415.067C376.243 416.073 375.82 417.141 376.062 418.162C376.286 419.099 376.597 420.075 376.847 421.004C377.668 424.084 381.346 427.509 385.291 426.15C388.987 424.883 388.797 420.405 390.489 417.901C391.189 416.856 391.983 416.165 392.492 415.082C393.054 413.892 393.701 412.671 394.236 411.449C395.566 408.408 395.514 404.606 397.941 402.141C400.272 399.76 402.56 396.98 406.229 396.304C408.284 395.92 409.32 395.42 411.211 394.476C412.731 393.715 414.32 393.416 415.874 392.755C418.758 391.527 421.581 390.743 424.542 389.706C427.841 388.554 430.526 386.795 433.479 385.06C436.95 383.017 440.455 381.534 443.443 378.815C446.033 376.458 449.305 375.044 451.723 372.533C453.009 371.196 454.201 369.645 455.254 368.155C456.308 366.665 457.914 364.791 458.734 363.124C460.003 360.544 459.131 356.673 459.157 353.854C459.191 350.014 457.844 346.842 455.634 343.555C451.636 337.61 444.885 335.782 437.995 333.44C436.173 332.817 434.204 332.579 432.425 331.873C431.277 331.42 430.457 330.828 429.205 330.613C426.166 330.099 422.272 330.667 419.155 330.652C415.269 330.629 411.66 331.343 407.758 331.351C404.554 331.351 401.351 331.351 398.148 331.351C392.458 331.351 385.861 332.18 380.482 330.475C377.365 329.492 374.542 327.91 371.442 326.957C368.179 325.951 365.088 324.569 361.988 323.132C356.92 320.79 351.782 318.724 346.343 316.873C340.774 314.976 333.84 311.044 328.099 314.584C325.664 316.09 323.315 317.595 320.578 318.793C318.213 319.83 315.64 321.497 313.093 322.134C310.545 322.772 306.867 322.457 304.242 322.303C302.68 322.211 301.238 321.75 300.072 320.775C299.174 320.03 298.639 318.97 297.767 318.209C296.783 317.349 295.66 316.942 294.495 316.335C291.611 314.83 288.399 313.832 285.066 313.286C283.719 313.063 282.562 312.718 281.267 312.318C279.652 311.827 278.409 311.904 276.725 311.842C272.814 311.696 269.067 310.437 265.147 310.406C262.539 310.383 258.611 310.752 257.558 307.956C256.625 305.468 258.516 301.727 259.319 299.308C260.415 296.005 259.889 292.211 259.889 288.786C259.889 286.643 260.666 283.133 259.215 281.267C257.946 279.631 255.598 279.239 253.568 279.001C251.755 278.786 250.236 277.949 248.483 277.672C246.307 277.327 244.175 276.912 241.921 276.927C239.288 276.943 235.834 276.428 233.209 276.881C230.023 277.426 228.072 281.574 226.725 283.924C225.576 285.906 224.109 288.709 222.097 290.03C219.127 291.973 215.613 293.033 212.625 295.076C209.664 297.096 206.547 298.77 203.404 300.521C201.945 301.335 200.227 301.581 198.681 302.226C197.498 302.718 196.557 303.486 195.4 303.993C193.984 304.615 192.603 304.776 191.264 305.59C189.175 306.85 187.776 308.133 186.127 309.769C185.125 310.759 183.994 311.681 182.829 312.51C181.292 313.601 180.351 314.907 178.909 316.051C176.103 318.278 173.4 319.576 169.722 320.391C165.69 321.282 161.433 320.214 157.513 321.22C154.327 322.034 150.209 323.148 147.67 325.068C145.538 326.681 143.284 328.025 141.117 329.622C138.069 331.857 135.6 334.154 132.042 335.705C130.177 336.519 128.623 337.664 126.586 338.186C124.254 338.785 121.828 339.215 119.48 339.761C114.99 340.79 111.122 342.61 106.77 343.893C102.548 345.137 98.8441 347.295 94.7774 348.823C93.3096 349.376 91.695 349.753 90.2531 350.336C87.5851 351.412 86.5835 353.647 83.4062 353.754C81.5843 353.816 79.6762 353.785 77.863 353.739C75.644 353.685 74.9274 353.163 73.2178 351.995C69.6346 349.538 67.8128 347.088 66.5263 343.286C65.5766 340.483 63.8325 337.695 60.8105 336.389C57.8749 335.122 54.0672 334.853 50.838 334.868C44.3797 334.899 36.8075 334.146 30.8413 336.719C28.3287 337.802 26.0148 339.561 23.4936 340.736C21.7322 341.565 20.7566 342.579 19.306 343.77C15.3947 346.98 10.81 349.446 7.2959 353.071C4.35165 356.112 1.5628 359.515 -1.13106 362.733C-4.61927 366.895 -7.23543 371.534 -8.71187 376.534C-9.99836 380.905 -11.1208 386.442 -8.61689 390.574C-5.94893 394.967 -3.50546 399.245 1.02748 402.425C4.57613 404.921 9.98975 405.305 14.2464 404.168C19.0902 402.87 21.076 397.01 21.4387 392.94C21.8272 388.585 22.2676 384.476 22.1899 380.067C22.1208 376.25 23.39 371.703 27.733 369.868C30.3146 371.65 29.2612 376.365 29.2699 378.885C29.2699 381.588 29.4598 384.007 30.0383 386.672C30.4528 388.57 30.8154 389.891 31.7738 391.688C32.8531 393.692 34.4245 396.012 34.6921 398.278C35.0202 401.089 33.4488 403.331 31.1608 405.044C27.6121 407.717 22.4661 409.138 18.244 410.766C14.0219 412.394 9.4717 413.923 5.3014 415.804C3.55729 416.588 2.47802 417.371 0.483523 417.747C-3.09966 418.416 -6.90732 418.654 -10.5423 419.145C-14.0478 419.614 -17.3115 420.174 -20.8688 420.036C-26.0234 419.829 -28.7 413.531 -31.1521 410.205C-33.3279 407.256 -35.2706 406.396 -39.5445 406.718C-46.4778 407.241 -54.663 412.079 -58.4706 417.279C-59.8348 419.138 -58.9282 420.589 -57.8144 422.486C-57.1928 423.546 -56.3812 424.829 -55.5264 425.758C-54.1622 427.233 -52.539 427.832 -50.8985 429.038C-48.619 430.712 -46.4432 433.285 -44.4746 435.305C-42.342 437.486 -41.0123 440.282 -40.3648 443.016C-39.769 445.504 -39.8294 446.011 -41.1332 448.431C-42.6096 451.18 -44.8632 453.116 -46.9613 455.543C-49.9746 459.037 -52.6944 462.002 -54.8874 466.026C-56.8129 469.567 -60.1198 474.529 -56.4589 477.824C-55.2242 478.937 -53.8168 480.466 -52.3404 481.287C-51.0366 482.009 -50.6912 482.009 -49.1716 481.395C-46.495 480.312 -43.8789 478.668 -41.4613 477.194C-37.9731 475.066 -33.7769 473.085 -30.9362 470.274C-28.4151 467.778 -25.0132 465.481 -21.5941 463.937C-18.8052 462.678 -15.2479 462.693 -12.2432 462.056C-8.78094 461.311 -7.78802 460.573 -5.05962 463.054C-2.75429 465.151 -0.742524 468.407 2.51256 469.444C6.43248 470.696 12.1828 470.496 13.5125 466.08C14.2982 463.469 13.1067 460.842 14.2464 458.185C15.7056 454.79 19.2888 452.532 23.1482 454.575C25.4967 455.819 27.3876 458.116 29.2958 459.805C31.1003 461.395 32.7235 462.724 33.9841 464.682C36.3585 468.361 40.926 471.787 45.8907 469.283C49.0421 467.693 50.8035 464.06 52.9534 461.641C54.6025 459.79 56.174 458.461 58.2807 456.933C60.3874 455.404 66.4832 449.575 70.0664 450.789C73.4337 451.925 75.5491 459.437 74.6511 462.294C73.6754 465.389 69.8419 466.633 67.6402 468.837C66.4832 469.997 65.3607 471.986 65.283 473.584C65.1967 475.573 66.8803 476.864 65.0758 478.73C62.9863 480.88 57.5036 482.324 54.6803 483.269C51.4597 484.344 48.4809 484.705 45.1136 485.105C39.2251 485.804 33.6301 485.842 27.8107 484.713C24.4693 484.068 21.5423 483.638 18.339 482.447C14.9026 481.165 11.1122 480.074 7.45131 479.467C3.68681 478.845 -0.181297 478.707 -3.90263 477.946C-7.62396 477.186 -11.233 475.804 -15.1961 475.804C-21.335 475.804 -26.4465 477.509 -31.2125 480.842C-33.6474 482.547 -36.134 483.353 -38.9401 484.536C-42.1175 485.88 -45.1136 487.294 -48.3859 488.446C-53.0915 490.105 -55.1983 492.862 -57.6417 496.594C-59.7917 499.882 -61.0263 503.315 -61.5617 507.086C-61.8725 509.259 -62.4942 511.456 -62.5373 513.622C-62.6064 516.356 -62.5201 519.106 -62.5201 521.848C-62.5201 525.941 -63.1158 530.411 -62.356 534.436C-61.5962 538.46 -60.2838 542.562 -56.9683 545.434C-53.8772 548.115 -50.1386 549.712 -46.236 551.195C-37.2047 554.62 -27.2063 553.975 -17.5878 553.975C-15.0494 553.975 -12.5023 553.591 -10.2056 554.62C-8.29743 555.48 -6.06982 556.325 -4.29118 557.377C-2.73702 558.291 -2.28804 559.512 -1.30374 560.826C-0.457595 561.962 0.474896 562.508 1.07065 563.852C1.77002 565.411 1.91681 567.078 2.59891 568.652C3.48823 570.71 4.18759 572.892 4.91286 575.004C7.26999 581.816 10.8359 588.007 13.6161 594.612C15.0235 597.953 15.1789 601.348 15.1271 604.865C15.0926 607.154 15.3775 609.166 15.7574 611.409C16.1718 613.859 15.5415 616.347 16.1028 618.774C17.5706 625.103 17.5878 631.731 21.3696 637.53C24.1584 641.793 29.5893 644.811 34.9425 645.978C40.3216 647.153 43.7667 645.118 48.3428 642.86C54.2226 639.965 61.4581 636.892 64.1778 631.055C65.119 629.028 65.3521 626.808 66.1292 624.734C67.1566 621.993 68.0287 619.589 68.6504 616.747C69.1339 614.535 70.1441 613.168 71.6119 611.378C73.451 609.135 74.9878 606.747 76.5074 604.328C79.9611 598.828 82.1887 592.331 82.6291 586.033C82.9054 582.031 83.3975 578.222 83.3975 574.197C83.3975 570.173 82.6291 565.541 84.6927 561.671C86.808 557.731 88.8889 552.324 92.2821 549.09C94.1902 547.277 97.0309 546.033 99.1463 544.397C101.538 542.546 104.171 540.258 106.019 537.946C107.236 536.425 109.93 531.732 108.497 530.212L105.812 529.528C103.317 529.144 100.847 528.683 98.3865 528.161C94.5011 527.209 90.3826 525.972 86.7044 524.52C83.5357 523.261 80.6432 521.679 77.3795 520.573C75.0828 519.789 71.7414 519.413 70.9298 516.978C70.2131 514.828 70.5153 511.686 70.239 509.428C69.9886 507.393 69.3325 504.16 70.2822 502.217C72.1472 502.186 74.4784 504.789 75.6613 505.588C78.0184 507.178 80.4101 508.699 82.6809 510.389C88.0341 514.382 94.8033 517.977 101.538 519.851C105.777 521.034 110.328 521.525 114.705 522.063C118.521 522.531 122.225 523.461 124.678 520.127C127.561 516.195 127.311 511.011 127.328 506.525C127.345 503.261 127.225 500.573 125.066 497.716C124.099 496.433 116.043 491.295 116.855 490.25C120.438 490.842 122.856 494.39 125.04 496.625C126.681 498.3 128.433 500.25 130.437 501.633C134.771 504.628 141.713 505.872 146.902 507.086C150.226 507.862 153.481 508.215 156.425 509.882C163.341 513.799 167.209 521.525 170.525 527.977C172.804 532.408 173.253 537.093 175.99 541.287C178.987 545.864 182.173 542.047 184.452 538.975C187.983 534.213 188.285 528.414 190.815 523.338C192.007 520.941 194.269 518.998 196.453 517.316C200.166 514.459 204.103 511.556 208.101 509.021C211.201 507.055 212.712 509.651 214.326 512.001C216.217 514.736 218.237 517.401 219.714 520.335C220.905 522.693 221.57 524.252 224.091 525.55C226.613 526.848 230.558 528.123 232.38 530.496C233.839 532.385 232.708 534.49 233.287 536.479C234.09 539.236 236.896 538.407 239.313 538.791C241.541 539.144 242.128 539.49 244.321 538.706C247.395 537.616 250.322 536.164 252.498 533.914C256.107 530.181 257.886 525.657 257.368 520.65C257.152 518.537 256.159 516.226 257.264 514.144C259.362 510.196 265.449 509.774 269.36 508.292C272.866 506.955 276.484 505.258 279.186 502.831C282.597 499.767 285.575 494.728 287.268 490.681C288.658 487.37 288.537 483.384 288.744 479.943C289.046 474.721 288.9 469.506 288.908 464.283C288.908 459.767 287.078 453.584 292.897 451.472C294.926 452.954 295.272 456.848 295.816 458.999C296.178 460.427 296.524 461.825 296.981 463.231C297.741 465.558 296.998 466.887 296.446 469.168C295.919 471.311 295.816 473.507 295.358 475.673C295.064 477.04 294.564 478.507 296.213 479.237C297.888 479.966 300.97 478.323 302.395 479.39C304.476 480.949 302.153 485.343 301.549 486.764C300.452 489.336 297.698 493.407 298.449 496.303C301.6 497.639 305.745 493.906 307.99 492.416C311.711 489.951 314.457 487.486 316.296 483.638C317.401 481.334 317.772 478.999 318.385 476.587C318.731 475.22 319.37 474.091 317.833 473.115C317.03 473.146 316.261 473.023 315.519 472.754C315.044 472.148 314.733 471.48 314.586 470.75C314.016 469.168 314.051 467.57 313.3 466.026C312.635 464.659 311.78 463.5 310.701 462.363C309.242 460.835 308.775 459.513 307.765 457.793C306.936 456.38 305.909 456.165 307.118 454.721C308.154 453.484 312.54 452.209 314.025 451.541C317.556 449.959 321.571 448.968 324.887 447.064C329.187 444.598 332.701 441.065 335.878 437.571C337.795 435.458 340.748 432.862 342.293 430.428C343.839 427.993 341.698 424.376 340.713 422.133C338.667 417.44 334.428 415.39 328.936 415.09" fill="#62AF83"/>
<path d="M123.623 321.374C123.623 315.375 122.889 309.484 126.921 304.346C128.838 301.904 131.989 300.813 134.657 299.147C136.686 297.879 138.577 296.343 140.684 295.207C141.625 294.7 142.687 294.446 143.637 293.955C144.88 293.31 145.839 292.372 147.108 291.781C150 290.437 151.485 289.677 153.057 286.889C154.24 284.792 154.352 281.85 152.323 280.199C149.534 277.933 147.099 277.565 143.404 277.588C141.66 277.595 139.259 277.257 137.576 277.718C134.804 278.479 133.051 279.8 131.135 281.689C129.356 283.44 127.741 285.253 125.661 286.735C123.45 288.31 121.559 289.684 119.945 291.789C118.978 293.048 117.76 294.362 116.966 295.713C116.31 296.835 116.137 297.995 115.576 299.162C114.807 300.767 113.452 301.919 113.279 303.701C113.158 304.991 113.331 306.359 113.331 307.657C113.331 309.239 112.934 311.205 113.443 312.741C113.823 313.901 114.902 315.099 115.541 316.189C117.096 318.839 119.72 320.137 122.155 322.042" fill="#62AF83"/>
<path d="M364.785 291.604C363.602 290.521 361.919 290.268 360.615 289.369C359.544 288.632 358.992 287.227 357.783 286.704C357.092 286.412 356.41 286.343 355.693 286.005C354.735 285.545 353.941 285.191 352.904 284.761C350.323 283.694 347.923 283.333 345.22 282.565C342.854 281.889 341.412 280.959 338.839 280.998C337.423 281.021 335.861 280.767 334.488 281.105C332.131 281.689 329.506 283.494 327.641 284.83C325.111 286.643 324.118 289.362 324.118 292.127C324.118 293.763 323.764 295.614 325.189 296.873C328.858 300.114 332.476 295.483 336.059 295.322C339.496 295.168 342.069 295.821 345.177 297.034C346.55 297.572 347.914 298.21 349.39 298.486C351.264 298.839 353.794 298.455 355.711 298.455C356.945 298.455 358.733 298.793 359.907 298.379C361.081 297.964 361.245 296.781 362.005 296.082C363.369 294.838 363.939 294.799 364.112 292.849" fill="#62AF83"/>
</g>
</g>
<g filter="url(#filter1_d_643_1257)">
<path d="M94.7003 141.545C95.1462 140.539 95.1229 139.552 95.1992 138.489C95.2413 137.916 95.3414 137.535 95.566 137.012C96.1663 135.613 96.7344 134.306 96.6332 132.747C96.5847 131.991 96.5897 131.258 96.5637 130.49C96.5433 129.841 96.3962 129.2 96.3584 128.55C96.3237 127.95 96.3898 127.222 96.7426 126.712C97.0916 126.211 97.6122 125.916 97.8893 125.328C98.9582 123.084 99.3272 120.658 99.8902 118.257C100.101 117.356 100.076 116.414 100.275 115.516C100.432 114.813 100.579 114.095 100.673 113.383C100.778 112.598 100.908 111.663 101.18 110.922C101.45 110.187 101.89 109.301 101.705 108.487C101.495 107.574 100.716 107.134 99.9231 106.801C98.6267 106.255 97.3496 105.623 96.0329 105.124C94.9768 104.723 93.5997 104.472 92.7463 105.345C92.3781 105.719 92.0196 106.062 91.7232 106.499C91.3327 107.08 90.8093 107.521 90.4078 108.087C90.0143 108.643 89.6116 109.212 89.1769 109.733C88.5373 110.502 87.8526 111.244 87.1776 111.98C86.5599 112.657 85.8592 113.494 84.9134 113.049C84.325 112.772 83.6728 112.422 83.0527 112.244C82.054 111.955 81.1145 111.783 80.147 111.364C79.2509 110.976 77.9946 110.689 77.3589 109.915C77.0075 109.488 76.9051 109.038 76.8192 108.5C76.7653 108.158 76.6422 107.773 76.6273 107.43C76.5714 106.167 77.1309 105.101 77.5852 103.969C77.8241 103.372 77.7603 102.602 77.7964 101.952C77.838 101.249 77.6992 100.556 77.5422 99.872C77.3045 98.8352 77.1013 97.8167 76.8866 96.7757C76.7231 95.9842 76.7857 95.2234 76.4538 94.4717C76.313 94.1522 76.1402 93.4233 75.696 93.3761C75.2924 93.3324 74.9867 93.7824 74.6882 93.9694C74.0553 94.3699 73.3361 94.6844 72.7452 95.1345C71.4278 96.1375 69.6003 96.3368 68.5655 97.7062C68.1971 98.1957 67.6688 98.5327 67.2651 98.9896C66.9833 99.3098 66.89 99.6829 66.6576 100.028C66.4094 100.401 66.0687 100.703 65.86 101.107C65.4351 101.933 65.1308 102.838 64.761 103.692C64.5525 104.169 64.5259 104.641 64.3313 105.111C63.8589 106.252 63.3145 107.258 62.5126 108.216C60.4173 110.72 58.0659 113.009 56.7575 116.057C56.2258 117.295 55.6953 118.531 55.1635 119.77C54.5633 121.168 53.7035 122.655 53.4431 124.146C53.3248 124.824 53.1593 125.464 53.0112 126.128C52.923 126.514 53.019 126.905 52.9826 127.285C52.9532 127.591 52.8565 127.931 52.7954 128.238C52.6934 128.754 52.753 129.288 52.6506 129.821C52.5296 130.456 52.3446 131.059 52.2457 131.699C52.0778 132.779 51.9463 133.839 51.7423 134.921C51.5047 136.188 51.5327 137.566 51.1418 138.788C50.9639 139.342 51.0742 139.97 50.9226 140.553C50.8116 140.992 50.8724 141.498 50.8365 141.958C50.7793 142.665 50.9559 143.385 51.0179 144.102C51.0502 144.469 51.0902 144.917 51.2268 145.263C51.3379 145.545 51.7354 145.8 51.5856 146.124L51.6503 145.973C52.4483 146.27 53.2799 145.612 54.0346 145.477C54.9037 145.322 55.7742 145.212 56.6544 145.121C57.0672 145.077 57.3938 144.997 57.8168 145.004C58.211 145.012 58.577 144.913 58.9647 144.863C59.5764 144.782 59.9223 144.878 60.4704 145.11C60.9369 145.31 61.3992 145.512 61.867 145.709C62.6808 146.052 63.3221 146.607 64.0813 147.028C65.3045 147.703 66.7238 148.151 68.0105 148.704C68.9792 149.12 69.9604 149.646 70.9854 149.89C71.7094 150.064 72.4493 150.382 73.1235 150.713C73.9157 151.106 74.3596 151.891 75.1264 152.294C77.1163 153.348 78.8152 154.784 80.9093 155.669C81.732 156.015 83.4896 157.176 84.3805 156.445C84.6026 156.264 84.749 156.005 84.9465 155.799C85.1753 155.561 85.4448 155.326 85.6371 155.059C85.8535 154.76 85.915 154.387 86.1106 154.079C86.2808 153.805 86.4889 153.607 86.6175 153.291C86.9098 152.57 87.3965 152.001 87.8471 151.362C88.399 150.576 89.0031 149.841 89.5549 149.056C90.1775 148.171 90.848 147.314 91.5207 146.468C92.2014 145.612 92.9238 144.798 93.5675 143.905C94.0817 143.191 94.3581 142.351 94.7122 141.55L94.7003 141.545ZM73.6932 105.912L73.087 105.652C72.7062 105.481 72.2424 105.398 72.0425 105.035C71.8413 104.676 71.7872 104.113 71.8019 103.71C71.8351 102.747 72.3935 101.832 72.7666 100.963C73.0534 100.294 73.3187 99.6765 73.7167 99.0772C73.8916 98.8091 73.9608 98.4922 74.1569 98.2403C74.2751 98.088 74.5355 97.629 74.7116 97.6696C74.9273 98.1754 74.6822 98.9595 74.4902 99.4477C74.2911 99.9609 74.3359 100.537 74.3324 101.078C74.3295 101.462 74.2642 101.843 74.2804 102.232C74.3009 102.668 74.4304 103.088 74.4365 103.524C74.4469 104.394 74.0312 105.133 73.6974 105.91L73.6932 105.912ZM98.1151 112.653C97.9552 113.025 97.793 113.288 97.5622 113.613C97.3847 113.862 97.3125 114.153 97.141 114.405C96.9191 114.734 96.791 115.032 96.5971 115.369C96.3824 115.746 96.0236 116.467 95.5459 116.539L94.7882 116.214C94.2039 115.189 94.2634 113.895 94.0413 112.756C93.8782 111.923 93.9241 111.004 93.8602 110.161C93.7769 109.068 93.7399 107.588 94.6774 106.814C95.4288 106.195 96.4245 106.146 97.1996 106.735C97.8838 107.256 98.5835 108.372 98.6474 109.24C98.6902 109.804 98.7322 110.526 98.6867 111.091C98.6399 111.635 98.3291 112.146 98.1176 112.647L98.1151 112.653Z" fill="#E8EAED"/>
</g>
<g filter="url(#filter2_d_643_1257)">
<path d="M76.21 340.199C76.5154 340.516 76.8856 340.849 77.2806 341.009C77.6755 341.169 78.0334 341.392 78.4314 341.539C78.8078 341.678 79.1873 341.86 79.5822 341.948C79.9 342.017 80.3628 342.01 80.6836 341.97C81.0662 341.919 81.3871 341.486 81.5691 341.178C81.8129 340.761 82.1677 340.384 82.3898 339.957C82.5718 339.605 82.7971 339.285 82.9729 338.933C83.1488 338.582 83.2907 338.221 83.445 337.85C83.5993 337.48 83.6826 337.119 83.7936 336.751C83.9757 336.155 84.2379 335.571 84.3891 334.965C84.4755 334.626 84.6174 334.337 84.7254 334.004C84.8272 333.696 84.8673 333.404 84.9969 333.1C85.1018 332.855 85.2807 332.601 85.3394 332.34C85.3702 332.202 85.3517 332.07 85.3949 331.935C85.4535 331.759 85.58 331.621 85.6664 331.461C85.9194 330.99 86.1261 330.522 86.4717 330.111C86.8604 329.649 87.28 329.225 87.6934 328.789C88.0575 328.406 88.5697 328.167 88.9152 327.772C89.1281 327.527 89.415 327.329 89.6711 327.128C89.7668 327.053 89.8316 326.987 89.9025 326.893C90.0506 326.692 90.2172 326.572 90.39 326.4C90.7849 326.001 91.1552 325.546 91.4853 325.084C91.8339 324.597 92.0746 324.051 92.3862 323.542C92.9817 322.566 93.5185 321.539 94.0985 320.553C94.2435 320.305 94.4719 320.073 94.6354 319.834C94.7866 319.611 94.8884 319.354 95.0087 319.112C95.2586 318.607 95.5764 318.098 95.7183 317.549C95.8356 317.1 95.9651 316.626 95.996 316.161C96.0053 316.013 95.996 315.853 95.9929 315.702C95.9867 315.476 95.8942 315.307 95.814 315.1C95.6535 314.682 95.4993 314.271 95.2833 313.878C95.0272 313.414 94.8359 312.971 94.4348 312.61C93.8887 312.12 93.1606 311.863 92.4973 311.586C92.2042 311.464 91.9049 311.37 91.618 311.232C91.257 311.056 90.933 310.852 90.5659 310.688C90.1987 310.525 89.8532 310.183 89.594 309.888C89.486 309.762 89.4212 309.731 89.2947 309.649C89.1096 309.533 88.9985 309.354 88.8412 309.203C88.5542 308.93 88.255 308.676 87.9495 308.421C87.1905 307.79 86.4933 307.078 85.7405 306.437C85.4258 306.17 85.0956 305.95 84.7902 305.668C84.5804 305.47 84.4323 305.294 84.2503 305.068C84.0682 304.842 84.0281 304.644 83.9356 304.371C83.8307 304.054 83.7288 303.765 83.6764 303.429C83.6023 302.946 83.482 302.198 83.0963 301.869C82.9359 301.734 82.7107 301.636 82.5101 301.586C82.2695 301.527 82.0566 301.495 81.8252 301.407C81.6555 301.344 81.492 301.275 81.3254 301.209C81.0724 301.112 80.7885 301.112 80.5448 300.993C80.3381 300.892 80.1838 300.707 79.9802 300.607C79.8938 300.563 79.7889 300.566 79.6994 300.516C79.5822 300.45 79.4742 300.318 79.3755 300.227C79.178 300.045 79.0515 299.859 78.8973 299.646C78.8109 299.527 78.706 299.432 78.6257 299.31C78.4962 299.112 78.4375 298.883 78.3326 298.669C78.1784 298.359 77.9624 298.079 77.7927 297.778C77.6385 297.498 77.3824 297.304 77.1818 297.059C76.9813 296.814 76.827 296.764 76.5524 296.641C76.3087 296.534 76.0958 296.352 75.8397 296.274C75.3306 296.117 74.6951 296.132 74.1737 296.076C73.6522 296.019 73.174 296.016 72.668 296.016C72.0849 296.016 71.4586 295.925 70.9125 296.173C70.459 296.377 70.0394 296.657 69.6043 296.892C69.1169 297.156 68.759 297.621 68.7374 298.18C68.725 298.497 68.7806 298.613 69.0058 298.861C69.2989 299.178 69.6105 299.461 69.9622 299.709C70.2646 299.922 70.5484 300.164 70.8693 300.349C71.0698 300.465 71.2241 300.603 71.3444 300.811C71.6252 301.297 71.7332 301.888 71.8566 302.431C72.0078 303.093 71.6746 303.731 71.1532 304.136C70.8847 304.346 70.5916 304.572 70.2985 304.745C69.953 304.949 69.4933 305.04 69.1107 305.159C68.8052 305.253 68.5276 305.41 68.219 305.483C67.9105 305.555 67.639 305.555 67.3366 305.558C66.8461 305.564 66.445 305.316 66.2136 304.874C66.0593 304.578 65.8619 304.333 65.686 304.054C65.4978 303.756 65.3281 303.458 65.0844 303.197C64.7512 302.839 64.2822 302.817 63.8348 302.688C63.6158 302.625 63.3844 302.613 63.1622 302.569C62.9216 302.522 62.6963 302.415 62.4588 302.365C62.2737 302.324 62.0762 302.349 61.888 302.349C61.5548 302.349 61.2154 302.337 60.8822 302.343C60.441 302.352 60.0708 302.447 59.6943 302.669C59.4475 302.814 59.3735 302.93 59.3056 303.206C59.1914 303.662 59.0063 304.252 59.1729 304.71C59.355 305.209 59.6203 305.684 59.9813 306.073C60.2312 306.346 60.4996 306.45 60.8174 306.619C61.1845 306.814 61.5394 307.021 61.9219 307.191C62.2521 307.335 62.5976 307.458 62.9123 307.64C63.4461 307.947 63.9335 308.45 64.0415 309.093C64.1619 309.806 63.6127 310.381 62.9925 310.61C62.5359 310.779 62.0669 310.801 61.5887 310.861C60.8668 310.949 60.1448 311.049 59.4228 311.147C58.9323 311.213 58.4201 311.194 57.9388 311.319C57.257 311.498 56.5628 311.627 55.8809 311.806C55.233 311.976 54.5882 312.098 53.9279 312.205C53.1628 312.33 52.3853 312.541 51.6448 312.767C51.253 312.886 50.8611 313.009 50.4662 313.125C49.8707 313.301 49.3648 313.586 48.7909 313.816C47.7203 314.246 46.5911 314.563 45.6809 315.319C45.3508 315.596 45.2459 316.173 45.1533 316.578C45.0608 316.984 45.0207 317.338 45.0237 317.731C45.0268 318.192 44.8818 318.83 45.2736 319.141C45.5452 319.354 45.974 319.448 46.2949 319.586C46.3874 319.624 46.4923 319.646 46.5664 319.715C46.6528 319.797 46.662 319.922 46.7361 320.004C46.8657 320.158 46.9798 320.177 47.1742 320.227L47.9363 320.302C48.6027 320.34 49.2691 320.384 49.9355 320.431C51.4165 320.531 52.9067 320.754 54.3907 320.789C54.6036 320.792 54.835 320.751 55.0417 320.789C55.2762 320.827 55.5045 321.053 55.668 321.2C55.9611 321.461 56.2326 321.759 56.5103 322.042C57.439 322.984 58.1887 324.039 58.9755 325.1C59.2161 325.426 59.4784 325.765 59.7931 326.023C60.2435 326.39 60.8575 326.682 61.3851 326.889C62.3168 327.26 63.3905 327.542 64.1896 328.174C64.7234 328.594 65.2541 329.006 65.831 329.37C66.2815 329.656 66.7196 329.954 67.17 330.243C67.3767 330.375 67.6236 330.497 67.8087 330.66C68.2591 331.065 68.3332 331.605 68.4504 332.174C68.5831 332.824 68.7559 333.329 69.0953 333.894C69.3668 334.346 69.7123 334.663 70.0702 335.04C70.4898 335.483 70.857 335.979 71.2704 336.425C71.3969 336.563 71.5419 336.66 71.6807 336.783C71.798 336.889 71.8875 337.04 72.0139 337.134C72.1497 337.235 72.3132 337.288 72.449 337.392C72.5847 337.495 72.702 337.624 72.8408 337.728C73.3437 338.105 73.7417 338.572 74.1922 339.006C74.4914 339.295 74.9265 339.499 75.2875 339.693C75.4325 339.772 75.5929 339.813 75.7379 339.888C75.9385 339.992 76.1112 340.158 76.3087 340.274" fill="#E8EAED"/>
</g>
<g filter="url(#filter3_d_643_1257)">
<path d="M245.846 177.475C245.532 176.979 245.086 176.697 244.637 176.347C244.395 176.159 244.255 176.001 244.09 175.746C243.647 175.065 243.235 174.425 242.512 174.007C242.162 173.805 241.838 173.585 241.489 173.369C241.195 173.186 240.867 173.061 240.567 172.885C240.29 172.722 239.987 172.477 239.865 172.169C239.745 171.865 239.769 171.547 239.59 171.249C238.91 170.109 237.943 169.226 237.043 168.264C236.706 167.903 236.28 167.635 235.94 167.28C235.674 167.002 235.399 166.724 235.111 166.47C234.793 166.191 234.417 165.856 234.168 165.515C233.922 165.178 233.659 164.719 233.242 164.56C232.775 164.382 232.349 164.598 231.965 164.851C231.338 165.265 230.679 165.645 230.067 166.082C229.576 166.432 229.055 166.969 229.19 167.607C229.247 167.881 229.293 168.142 229.399 168.403C229.542 168.749 229.582 169.112 229.714 169.459C229.845 169.798 229.978 170.146 230.08 170.493C230.232 171.005 230.359 171.53 230.485 172.048C230.603 172.523 230.767 173.082 230.289 173.37C229.991 173.55 229.642 173.735 229.379 173.958C228.955 174.316 228.599 174.682 228.126 174.987C227.688 175.27 227.188 175.743 226.656 175.796C226.362 175.825 226.132 175.737 225.868 175.616C225.7 175.538 225.492 175.479 225.336 175.384C224.758 175.034 224.451 174.469 224.083 173.932C223.888 173.648 223.527 173.448 223.25 173.24C222.949 173.013 222.6 172.869 222.25 172.736C221.719 172.534 221.207 172.322 220.681 172.109C220.281 171.946 219.961 171.693 219.529 171.617C219.346 171.585 218.971 171.446 218.818 171.629C218.679 171.795 218.788 172.064 218.782 172.252C218.773 172.652 218.699 173.065 218.724 173.461C218.778 174.343 218.325 175.214 218.626 176.08C218.734 176.389 218.727 176.723 218.81 177.038C218.869 177.258 219.007 177.41 219.091 177.616C219.183 177.837 219.216 178.077 219.334 178.29C219.575 178.724 219.887 179.127 220.156 179.545C220.306 179.779 220.508 179.931 220.659 180.156C221.025 180.705 221.311 181.245 221.498 181.885C221.989 183.558 222.308 185.281 223.273 186.766C223.666 187.37 224.057 187.972 224.45 188.575C224.893 189.257 225.298 190.079 225.883 190.637C226.149 190.891 226.384 191.154 226.635 191.417C226.78 191.571 226.983 191.644 227.141 191.773C227.268 191.877 227.39 192.021 227.508 192.139C227.707 192.337 227.962 192.469 228.168 192.672C228.414 192.914 228.627 193.175 228.882 193.409C229.312 193.804 229.744 194.177 230.164 194.588C230.656 195.07 231.276 195.466 231.703 196.002C231.896 196.245 232.208 196.383 232.422 196.623C232.584 196.802 232.826 196.925 233.02 197.078C233.317 197.313 233.689 197.448 234.026 197.633C234.199 197.728 234.41 197.843 234.604 197.884C234.762 197.919 234.993 197.818 235.092 197.981L235.045 197.907C235.413 197.641 235.368 197.076 235.532 196.701C235.72 196.269 235.93 195.85 236.15 195.432C236.253 195.236 236.315 195.067 236.443 194.881C236.563 194.708 236.628 194.517 236.721 194.329C236.866 194.034 237.012 193.909 237.277 193.734C237.504 193.586 237.731 193.441 237.958 193.292C238.351 193.032 238.788 192.912 239.2 192.699C239.863 192.356 240.483 191.859 241.109 191.451C241.581 191.145 242.106 190.865 242.518 190.482C242.811 190.212 243.171 189.978 243.518 189.777C243.928 189.541 244.408 189.577 244.814 189.356C245.873 188.785 247.014 188.456 248.028 187.789C248.426 187.526 249.463 187.09 249.402 186.477C249.388 186.325 249.316 186.183 249.283 186.034C249.246 185.862 249.221 185.673 249.16 185.508C249.091 185.323 248.944 185.186 248.865 185.007C248.794 184.851 248.768 184.7 248.665 184.549C248.432 184.205 248.324 183.82 248.173 183.43C247.988 182.952 247.841 182.466 247.655 181.988C247.447 181.449 247.266 180.897 247.089 180.348C246.911 179.791 246.764 179.229 246.558 178.678C246.394 178.238 246.102 177.866 245.852 177.472L245.846 177.475ZM223.791 176.236L223.496 176.428C223.307 176.547 223.132 176.728 222.912 176.709C222.693 176.692 222.427 176.549 222.252 176.423C221.835 176.123 221.594 175.603 221.318 175.18C221.107 174.854 220.911 174.553 220.763 174.199C220.696 174.042 220.575 173.917 220.522 173.755C220.489 173.657 220.362 173.406 220.433 173.34C220.721 173.394 220.997 173.735 221.157 173.965C221.326 174.206 221.595 174.357 221.834 174.519C222.003 174.634 222.154 174.776 222.331 174.884C222.531 175.004 222.755 175.071 222.951 175.198C223.34 175.451 223.545 175.855 223.792 176.234L223.791 176.236ZM234.028 167.39C234.146 167.571 234.214 167.721 234.29 167.92C234.348 168.073 234.456 168.191 234.517 168.342C234.597 168.538 234.692 168.684 234.784 168.87C234.888 169.077 235.102 169.45 234.992 169.683L234.622 169.923C233.994 169.879 233.437 169.469 232.865 169.23C232.447 169.055 232.053 168.762 231.659 168.54C231.149 168.253 230.481 167.831 230.415 167.185C230.363 166.668 230.637 166.211 231.128 166.041C231.563 165.892 232.266 165.912 232.67 166.141C232.933 166.29 233.266 166.485 233.504 166.673C233.731 166.855 233.866 167.144 234.026 167.387L234.028 167.39Z" fill="#E8EAED"/>
</g>
</g>
<defs>
<filter id="filter0_d_643_1257" x="79" y="216" width="560" height="499.024" filterUnits="userSpaceOnUse" color-interpolation-filters="sRGB">
<feFlood flood-opacity="0" result="BackgroundImageFix"/>
<feColorMatrix in="SourceAlpha" type="matrix" values="0 0 0 0 0 0 0 0 0 0 0 0 0 0 0 0 0 0 127 0" result="hardAlpha"/>
<feOffset/>
<feGaussianBlur stdDeviation="2"/>
<feComposite in2="hardAlpha" operator="out"/>
<feColorMatrix type="matrix" values="0 0 0 0 0.909804 0 0 0 0 0.917647 0 0 0 0 0.929412 0 0 0 1 0"/>
<feBlend mode="normal" in2="BackgroundImageFix" result="effect1_dropShadow_643_1257"/>
<feBlend mode="normal" in="SourceGraphic" in2="effect1_dropShadow_643_1257" result="shape"/>
</filter>
<filter id="filter1_d_643_1257" x="49.8252" y="92.3732" width="52.9238" height="65.309" filterUnits="userSpaceOnUse" color-interpolation-filters="sRGB">
<feFlood flood-opacity="0" result="BackgroundImageFix"/>
<feColorMatrix in="SourceAlpha" type="matrix" values="0 0 0 0 0 0 0 0 0 0 0 0 0 0 0 0 0 0 127 0" result="hardAlpha"/>
<feOffset/>
<feGaussianBlur stdDeviation="0.5"/>
<feComposite in2="hardAlpha" operator="out"/>
<feColorMatrix type="matrix" values="0 0 0 0 0.670588 0 0 0 0 0.592157 0 0 0 0 0.54902 0 0 0 0.25 0"/>
<feBlend mode="normal" in2="BackgroundImageFix" result="effect1_dropShadow_643_1257"/>
<feBlend mode="normal" in="SourceGraphic" in2="effect1_dropShadow_643_1257" result="shape"/>
</filter>
<filter id="filter2_d_643_1257" x="44" y="295" width="53" height="48" filterUnits="userSpaceOnUse" color-interpolation-filters="sRGB">
<feFlood flood-opacity="0" result="BackgroundImageFix"/>
<feColorMatrix in="SourceAlpha" type="matrix" values="0 0 0 0 0 0 0 0 0 0 0 0 0 0 0 0 0 0 127 0" result="hardAlpha"/>
<feOffset/>
<feGaussianBlur stdDeviation="0.5"/>
<feComposite in2="hardAlpha" operator="out"/>
<feColorMatrix type="matrix" values="0 0 0 0 0.670588 0 0 0 0 0.592157 0 0 0 0 0.54902 0 0 0 0.25 0"/>
<feBlend mode="normal" in2="BackgroundImageFix" result="effect1_dropShadow_643_1257"/>
<feBlend mode="normal" in="SourceGraphic" in2="effect1_dropShadow_643_1257" result="shape"/>
</filter>
<filter id="filter3_d_643_1257" x="217.522" y="163.495" width="32.8828" height="35.4857" filterUnits="userSpaceOnUse" color-interpolation-filters="sRGB">
<feFlood flood-opacity="0" result="BackgroundImageFix"/>
<feColorMatrix in="SourceAlpha" type="matrix" values="0 0 0 0 0 0 0 0 0 0 0 0 0 0 0 0 0 0 127 0" result="hardAlpha"/>
<feOffset/>
<feGaussianBlur stdDeviation="0.5"/>
<feComposite in2="hardAlpha" operator="out"/>
<feColorMatrix type="matrix" values="0 0 0 0 0.670588 0 0 0 0 0.592157 0 0 0 0 0.54902 0 0 0 0.25 0"/>
<feBlend mode="normal" in2="BackgroundImageFix" result="effect1_dropShadow_643_1257"/>
<feBlend mode="normal" in="SourceGraphic" in2="effect1_dropShadow_643_1257" result="shape"/>
</filter>
<radialGradient id="paint0_radial_643_1257" cx="0" cy="0" r="1" gradientUnits="userSpaceOnUse" gradientTransform="translate(425.838 289.61) rotate(0.409188) scale(562.404 62.8417)">
<stop stop-color="#3CA5FF"/>
<stop offset="0.92" stop-color="#64B5E2"/>
</radialGradient>
<radialGradient id="paint1_radial_643_1257" cx="0" cy="0" r="1" gradientUnits="userSpaceOnUse" gradientTransform="translate(447.785 289.774) rotate(0.391397) scale(582.588 62.8416)">
<stop stop-color="#6FBDFF"/>
<stop offset="0.92" stop-color="#88CCF2"/>
</radialGradient>
<clipPath id="clip0_643_1257">
<rect width="360" height="360" fill="white"/>
</clipPath>
</defs>
</svg>
