<svg width="80" height="80" viewBox="0 0 80 80" fill="none" xmlns="http://www.w3.org/2000/svg">
<g filter="url(#filter0_d_372_1663)">
<path d="M61.3333 31.3334C61.3333 19.9154 52.0741 10.6667 40.6667 10.6667C29.2593 10.6667 20 19.9154 20 31.3334C20 41.3334 27.1111 49.6508 36.5397 51.5662L38.2645 59.0265L40.6772 69.4286L43.0899 59.0265L44.8148 51.5662C54.2328 49.6402 61.3333 41.3334 61.3333 31.3439V31.3334Z" fill="#5EB5FF"/>
</g>
<path d="M28.4166 31.5C28.4166 33.0868 28.7292 34.6581 29.3364 36.1241C29.9437 37.5901 30.8337 38.9222 31.9558 40.0442C33.0778 41.1663 34.4099 42.0563 35.8759 42.6636C37.3419 43.2708 38.9132 43.5834 40.5 43.5834C42.0868 43.5834 43.658 43.2708 45.1241 42.6636C46.5901 42.0563 47.9221 41.1663 49.0442 40.0442C50.1662 38.9222 51.0563 37.5901 51.6635 36.1241C52.2708 34.6581 52.5833 33.0868 52.5833 31.5C52.5833 29.9132 52.2708 28.3419 51.6635 26.8759C51.0563 25.4099 50.1662 24.0779 49.0442 22.9558C47.9221 21.8338 46.5901 20.9437 45.1241 20.3365C43.658 19.7292 42.0868 19.4167 40.5 19.4167C38.9132 19.4167 37.3419 19.7292 35.8759 20.3365C34.4099 20.9437 33.0778 21.8338 31.9558 22.9558C30.8337 24.0779 29.9437 25.4099 29.3364 26.8759C28.7292 28.3419 28.4166 29.9132 28.4166 31.5Z" stroke="white" stroke-width="2" stroke-linecap="round" stroke-linejoin="round"/>
<path d="M37.8148 31.5H40.5C41.2122 31.5 41.8951 31.2171 42.3987 30.7135C42.9023 30.21 43.1852 29.527 43.1852 28.8148C43.1852 28.1027 42.9023 27.4197 42.3987 26.9161C41.8951 26.4125 41.2122 26.1296 40.5 26.1296H37.8148V36.8704M43.1852 36.8704L39.1574 31.5" stroke="white" stroke-width="2" stroke-linecap="round" stroke-linejoin="round"/>
<defs>
<filter id="filter0_d_372_1663" x="16" y="8.66669" width="49.3334" height="66.7619" filterUnits="userSpaceOnUse" color-interpolation-filters="sRGB">
<feFlood flood-opacity="0" result="BackgroundImageFix"/>
<feColorMatrix in="SourceAlpha" type="matrix" values="0 0 0 0 0 0 0 0 0 0 0 0 0 0 0 0 0 0 127 0" result="hardAlpha"/>
<feOffset dy="2"/>
<feGaussianBlur stdDeviation="2"/>
<feComposite in2="hardAlpha" operator="out"/>
<feColorMatrix type="matrix" values="0 0 0 0 0 0 0 0 0 0 0 0 0 0 0 0 0 0 0.25 0"/>
<feBlend mode="normal" in2="BackgroundImageFix" result="effect1_dropShadow_372_1663"/>
<feBlend mode="normal" in="SourceGraphic" in2="effect1_dropShadow_372_1663" result="shape"/>
</filter>
</defs>
</svg>
