<svg width="300" height="295" viewBox="0 0 300 295" fill="none" xmlns="http://www.w3.org/2000/svg">
<g filter="url(#filter0_d_301_859)">
<mask id="mask0_301_859" style="mask-type:luminance" maskUnits="userSpaceOnUse" x="48" y="54" width="204" height="204">
<path d="M149.902 257.66C205.936 257.66 251.36 212.069 251.36 155.83C251.36 99.5909 205.936 54 149.902 54C93.8684 54 48.4441 99.5909 48.4441 155.83C48.4441 212.069 93.8684 257.66 149.902 257.66Z" fill="white"/>
</mask>
<g mask="url(#mask0_301_859)">
<path d="M365 53.3311H-29V265.331H365V53.3311Z" fill="#88CCF2"/>
<path d="M197.533 260.129C237.53 260.129 269.953 229.252 269.953 191.164C269.953 153.076 237.53 122.2 197.533 122.2C157.537 122.2 125.114 153.076 125.114 191.164C125.114 229.252 157.537 260.129 197.533 260.129Z" fill="url(#paint0_radial_301_859)"/>
<path d="M58.7816 260.397C92.9425 260.397 120.635 234.026 120.635 201.495C120.635 168.965 92.9425 142.594 58.7816 142.594C24.6208 142.594 -3.0721 168.965 -3.0721 201.495C-3.0721 234.026 24.6208 260.397 58.7816 260.397Z" fill="url(#paint1_radial_301_859)"/>
<path d="M168.029 110.964C267.729 110.964 348.553 98.4207 348.553 82.9473C348.553 67.4739 267.729 54.9302 168.029 54.9302C68.3279 54.9302 -12.4955 67.4739 -12.4955 82.9473C-12.4955 98.4207 68.3279 110.964 168.029 110.964Z" fill="url(#paint2_radial_301_859)"/>
<path d="M176.036 110.964C279.297 110.964 363.007 98.4207 363.007 82.9473C363.007 67.4739 279.297 54.9302 176.036 54.9302C72.7755 54.9302 -10.9339 67.4739 -10.9339 82.9473C-10.9339 98.4207 72.7755 110.964 176.036 110.964Z" fill="url(#paint3_radial_301_859)"/>
<path d="M139.793 134.299C140.593 133.413 141.383 132.464 142.161 131.55C143.367 130.132 144.792 129.352 146.347 128.377C147.182 127.851 148.391 127.45 149.318 127.048C150.032 126.739 150.931 126.36 151.692 126.22C152.413 126.086 153.476 126.16 154.219 126.227C154.774 126.278 155.355 126.469 155.879 126.669C156.752 127.004 157.009 127.784 157.294 128.644C157.631 129.651 157.593 130.467 157.64 131.492C157.688 132.461 158.091 133.369 158.262 134.299C158.342 134.729 158.18 135.188 158.272 135.624C158.358 136.025 158.475 136.443 158.57 136.841C158.881 138.157 160.278 139.625 161.773 139.045C163.172 138.501 163.103 136.586 163.744 135.513C164.01 135.067 164.312 134.77 164.502 134.308C164.715 133.799 164.963 133.276 165.166 132.754C165.67 131.454 165.651 129.826 166.569 128.769C167.486 127.711 168.324 126.558 169.714 126.268C170.495 126.105 170.888 125.892 171.602 125.487C172.18 125.163 172.783 125.035 173.373 124.752C174.468 124.226 175.538 123.892 176.662 123.446C177.912 122.952 178.934 122.2 180.055 121.458C181.372 120.582 182.702 119.948 183.835 118.785C184.819 117.775 186.06 117.17 186.977 116.093C187.466 115.52 187.916 114.857 188.316 114.22C188.716 113.583 189.326 112.78 189.637 112.067C190.116 110.961 189.786 109.305 189.795 108.097C189.811 106.454 189.297 105.097 188.459 103.689C186.942 101.143 184.381 100.363 181.769 99.3594C181.077 99.095 180.331 98.9899 179.655 98.6873C179.22 98.4929 178.909 98.2413 178.433 98.1489C177.281 97.9291 175.805 98.1712 174.621 98.1648C173.148 98.1553 171.777 98.4611 170.298 98.4611C169.082 98.4611 167.867 98.4611 166.651 98.4611C164.49 98.4611 161.989 98.8147 159.948 98.0884C158.764 97.6647 157.694 96.9925 156.517 96.5816C155.279 96.1515 154.108 95.559 152.93 94.9442C151.007 93.9408 149.058 93.0552 146.992 92.262C144.878 91.4528 142.247 89.7677 140.073 91.284C139.149 91.9275 138.257 92.5741 137.219 93.087C136.321 93.5298 135.347 94.2434 134.378 94.5173C133.417 94.7913 132.017 94.6543 131.02 94.5906C130.43 94.5524 129.881 94.3549 129.437 93.9344C129.097 93.6126 128.894 93.1635 128.561 92.8354C128.189 92.4658 127.761 92.2906 127.32 92.0326C126.225 91.3891 125.006 90.9622 123.743 90.7265C123.232 90.6309 122.794 90.4844 122.298 90.3124C121.686 90.0989 121.216 90.134 120.575 90.1085C119.09 90.0448 117.668 89.5064 116.182 89.4937C115.195 89.4841 113.703 89.6434 113.304 88.4456C112.948 87.3785 113.665 85.7793 113.97 84.744C114.386 83.3296 114.186 81.705 114.186 80.2396C114.186 79.3222 114.481 77.8217 113.932 77.0222C113.45 76.3213 112.558 76.1525 111.79 76.0506C111.101 75.9582 110.523 75.6014 109.86 75.4835C109.035 75.3338 108.225 75.1586 107.371 75.165C106.372 75.1713 105.064 74.9484 104.067 75.1427C102.858 75.3784 102.119 77.1528 101.604 78.1562C101.17 79.0036 100.611 80.2046 99.846 80.7716C98.7193 81.6062 97.3862 82.0586 96.2531 82.9314C95.1295 83.7947 93.9457 84.5146 92.7554 85.2632C92.2 85.6137 91.5525 85.7188 90.9653 85.9959C90.5178 86.2062 90.1591 86.5343 89.7211 86.7509C89.1816 87.0185 88.661 87.0854 88.1532 87.4326C87.3597 87.9742 86.8297 88.5189 86.2044 89.2197C85.8236 89.6434 85.3951 90.0384 84.9539 90.392C84.3699 90.8603 84.0144 91.4178 83.4653 91.9084C82.402 92.864 81.3737 93.4183 79.9803 93.7655C78.4505 94.1478 76.835 93.6891 75.3464 94.1223C74.1403 94.4727 72.5724 94.9474 71.6107 95.7693C70.8013 96.4605 69.9475 97.0371 69.1223 97.7188C67.967 98.6777 67.0275 99.6589 65.6786 100.325C64.9708 100.672 64.3804 101.162 63.6092 101.385C62.7236 101.64 61.8032 101.828 60.9113 102.058C59.2069 102.5 57.7406 103.278 56.0901 103.826C54.4873 104.358 53.0844 105.285 51.5387 105.934C50.9832 106.17 50.3707 106.333 49.8216 106.581C48.8123 107.04 48.4314 107.999 47.2253 108.043C46.5366 108.069 45.8097 108.056 45.121 108.037C44.2799 108.011 44.0069 107.792 43.3594 107.288C41.9978 106.237 41.3091 105.186 40.8203 103.558C40.4616 102.357 39.7983 101.166 38.6525 100.608C37.5067 100.051 36.0943 99.9519 34.8692 99.9583C32.4221 99.971 29.5465 99.6493 27.2803 100.752C26.3249 101.217 25.4489 101.968 24.4904 102.472C23.8207 102.825 23.4525 103.259 22.9034 103.768C21.418 105.141 19.6819 106.199 18.3456 107.75C17.2284 109.05 16.1683 110.509 15.1463 111.885C13.8228 113.669 12.8293 115.654 12.2707 117.794C11.7819 119.664 11.3566 122.034 12.3056 123.806C13.3181 125.685 14.2449 127.52 15.962 128.88C17.3109 129.947 19.3613 130.113 20.9768 129.626C22.8145 129.068 23.5699 126.561 23.7064 124.819C23.8524 122.955 24.0206 121.197 23.9921 119.307C23.9667 117.673 24.4491 115.727 26.0932 114.94C27.074 115.705 26.674 117.724 26.6772 118.798C26.6772 119.954 26.7502 120.989 26.9692 122.13C27.1279 122.942 27.2644 123.509 27.6294 124.277C28.0388 125.137 28.6355 126.128 28.7371 127.099C28.8641 128.304 28.2642 129.262 27.3977 129.998C26.052 131.142 24.0968 131.754 22.4971 132.448C20.8975 133.142 19.1709 133.799 17.5839 134.605C16.9237 134.939 16.5111 135.277 15.7557 135.436C14.3941 135.723 12.9499 135.825 11.5725 136.035C10.195 136.245 9.00473 136.475 7.65581 136.414C5.70066 136.325 4.68501 133.63 3.75187 132.203C2.92664 130.941 2.19029 130.575 0.565234 130.712C-2.06596 130.935 -5.17007 133.009 -6.61421 135.232C-7.13157 136.029 -6.78561 136.65 -6.36347 137.462C-6.1286 137.914 -5.82073 138.466 -5.49381 138.864C-4.97646 139.494 -4.36072 139.752 -3.73863 140.269C-2.87532 140.985 -2.04692 142.088 -1.30104 142.951C-0.491688 143.884 0.01297 145.082 0.260537 146.251C0.485887 147.315 0.463667 147.532 -0.0314674 148.567C-0.593255 149.746 -1.44387 150.571 -2.2437 151.612C-3.38949 153.106 -4.41785 154.374 -5.24942 156.098C-5.9826 157.614 -7.23313 159.736 -5.84295 161.147C-5.3732 161.621 -4.83998 162.278 -4.28137 162.631C-3.78624 162.943 -3.6561 162.94 -3.07845 162.679C-2.06279 162.217 -1.06934 161.51 -0.152076 160.879C1.17146 159.968 2.76477 159.121 3.84391 157.917C4.80244 156.849 6.09106 155.865 7.38603 155.206C8.44295 154.667 9.79187 154.674 10.9313 154.4C12.2453 154.081 12.623 153.766 13.6577 154.827C14.5337 155.725 15.2955 157.117 16.5301 157.563C18.0187 158.098 20.1992 158.015 20.7039 156.12C21.0022 155.002 20.5483 153.877 20.9832 152.74C21.5354 151.284 22.8971 150.319 24.3602 151.195C25.249 151.727 25.9694 152.711 26.6931 153.435C27.3755 154.116 27.9912 154.683 28.4705 155.521C29.3719 157.095 31.1017 158.56 32.987 157.493C34.1836 156.814 34.8501 155.257 35.6658 154.221C36.2911 153.428 36.8878 152.861 37.6876 152.205C38.4874 151.549 40.7981 149.054 42.1597 149.574C43.4388 150.061 44.2386 153.275 43.899 154.499C43.5308 155.824 42.074 156.356 41.2393 157.299C40.8013 157.796 40.3728 158.646 40.3474 159.331C40.3156 160.185 40.9536 160.736 40.268 161.532C39.4745 162.453 37.3956 163.071 36.3228 163.475C35.1009 163.937 33.9709 164.09 32.6918 164.262C30.4574 164.562 28.334 164.578 26.1281 164.093C24.8617 163.816 23.7477 163.635 22.5321 163.122C21.2276 162.574 19.7898 162.106 18.4028 161.844C16.9777 161.577 15.5081 161.52 14.0957 161.195C12.6833 160.87 11.3154 160.277 9.81091 160.277C7.48124 160.277 5.54197 161.007 3.736 162.434C2.80921 163.166 1.86655 163.507 0.806455 164.014C-0.399642 164.59 -1.53591 165.196 -2.77692 165.689C-4.56385 166.4 -5.36368 167.582 -6.29047 169.181C-7.10617 170.589 -7.57592 172.057 -7.77905 173.672C-7.89648 174.603 -8.13136 175.546 -8.1504 176.473C-8.17579 177.645 -8.14405 178.82 -8.14405 179.993C-8.14405 181.745 -8.37258 183.656 -8.08375 185.383C-7.80444 187.055 -7.29979 188.861 -6.03973 190.091C-4.86855 191.238 -3.44662 191.923 -1.97074 192.557C1.45394 194.022 5.24997 193.748 8.89682 193.748C9.8617 193.748 10.8266 193.582 11.6994 194.025C12.4231 194.391 13.2673 194.755 13.9434 195.204C14.5337 195.596 14.7051 196.118 15.0765 196.679C15.397 197.163 15.7494 197.399 15.9779 197.972C16.2413 198.638 16.3016 199.355 16.5587 200.027C16.8983 200.909 17.1618 201.843 17.4379 202.747C18.3329 205.665 19.685 208.316 20.742 211.141C21.2752 212.572 21.3355 214.024 21.3133 215.531C21.3006 216.509 21.4085 217.372 21.5513 218.331C21.71 219.379 21.4688 220.446 21.6846 221.485C22.2432 224.196 22.2464 227.031 23.6842 229.512C24.7411 231.338 26.8042 232.631 28.8323 233.128C30.8732 233.628 32.1808 232.759 33.917 231.793C36.1483 230.554 38.8937 229.238 39.9221 226.741C40.2775 225.874 40.3664 224.922 40.6616 224.036C41.052 222.864 41.3821 221.835 41.617 220.618C41.7979 219.672 42.1851 219.086 42.7405 218.318C43.4388 217.356 44.0196 216.337 44.5973 215.298C45.9081 212.944 46.7524 210.163 46.9174 207.468C47.0222 205.758 47.2094 204.123 47.2094 202.403C47.2094 200.613 46.9174 198.695 47.7014 197.042C48.4854 195.389 49.2915 193.041 50.5802 191.658C51.3038 190.881 52.3829 190.349 53.186 189.648C54.0937 188.858 55.0935 187.877 55.7949 186.886C56.2583 186.233 57.2803 184.226 56.7344 183.576L55.7156 183.287C54.7698 183.121 53.8303 182.927 52.8971 182.704C51.4244 182.296 49.8597 181.767 48.4663 181.143C47.2634 180.604 46.1652 179.926 44.9274 179.454C44.0545 179.12 42.7881 178.957 42.4803 177.916C42.2073 176.995 42.3216 175.651 42.2168 174.682C42.1216 173.809 41.8709 172.427 42.2359 171.595C42.9405 171.583 43.826 172.695 44.2767 173.039C45.1718 173.72 46.0763 174.37 46.9396 175.093C48.971 176.801 51.5387 178.343 54.0937 179.145C55.7029 179.649 57.4295 179.862 59.0895 180.095C60.5368 180.295 61.9428 180.693 62.8728 179.266C63.9678 177.581 63.8694 175.364 63.879 173.443C63.8853 172.048 63.8409 170.895 63.022 169.671C62.6538 169.123 59.6005 166.922 59.9084 166.476C61.27 166.728 62.1841 168.247 63.0125 169.206C63.6346 169.926 64.2979 170.758 65.0597 171.35C66.7038 172.631 69.335 173.166 71.3091 173.685C72.5692 174.017 73.8039 174.169 74.9211 174.883C77.5459 176.562 79.0123 179.868 80.2723 182.627C81.1388 184.523 81.307 186.529 82.3481 188.326C83.4844 190.288 84.6936 188.651 85.5601 187.335C86.9027 185.297 87.0138 182.815 87.9723 180.643C88.4262 179.617 89.28 178.785 90.1115 178.065C91.5208 176.842 93.0157 175.6 94.5297 174.513C95.7072 173.669 96.2785 174.784 96.8911 175.788C97.6084 176.957 98.3765 178.1 98.9383 179.356C99.389 180.365 99.6397 181.031 100.601 181.585C101.563 182.14 103.055 182.688 103.747 183.701C104.299 184.51 103.874 185.408 104.093 186.262C104.397 187.444 105.461 187.087 106.381 187.253C107.225 187.402 107.448 187.552 108.282 187.218C109.447 186.749 110.558 186.128 111.383 185.166C112.751 183.567 113.427 181.633 113.231 179.486C113.148 178.581 112.77 177.594 113.189 176.702C113.983 175.014 116.293 174.832 117.776 174.195C119.105 173.625 120.477 172.898 121.505 171.86C122.8 170.551 123.927 168.391 124.571 166.658C125.098 165.24 125.053 163.536 125.13 162.061C125.244 159.828 125.19 157.592 125.19 155.355C125.19 153.422 124.495 150.775 126.701 149.873C127.469 150.507 127.599 152.173 127.808 153.094C127.945 153.705 128.078 154.304 128.253 154.906C128.542 155.9 128.259 156.47 128.05 157.448C127.85 158.366 127.808 159.306 127.637 160.233C127.526 160.816 127.335 161.446 127.961 161.758C128.586 162.071 129.767 161.37 130.306 161.825C131.097 162.494 130.214 164.371 129.983 164.982C129.567 166.084 128.523 167.827 128.805 169.063C129.998 169.633 131.573 168.037 132.423 167.4C133.836 166.342 134.877 165.288 135.575 163.641C135.994 162.654 136.137 161.657 136.369 160.621C136.499 160.038 136.74 159.551 136.159 159.134C135.854 159.146 135.562 159.095 135.28 158.981C135.099 158.723 134.982 158.436 134.924 158.124C134.709 157.445 134.721 156.763 134.439 156.104C134.188 155.518 133.861 155.021 133.452 154.537C132.896 153.881 132.722 153.317 132.338 152.581C132.023 151.976 131.633 151.883 132.09 151.265C132.484 150.736 134.147 150.192 134.712 149.905C136.051 149.226 137.575 148.803 138.835 147.99C140.466 146.936 141.799 145.423 143.005 143.926C143.735 143.021 144.852 141.912 145.44 140.867C146.027 139.823 145.214 138.278 144.84 137.316C144.062 135.309 142.456 134.426 140.371 134.299" fill="#80BA9B"/>
<path d="M143.662 210.769C142.694 210.769 141.333 211.027 140.441 210.574C139.508 210.1 138.977 209.102 138.238 208.43C136.495 206.844 133.376 207.261 131.541 208.373C130.579 208.956 129.83 209.682 128.929 210.332C128.113 210.918 127.228 211.406 126.399 211.963C125.46 212.597 124.492 213.33 123.406 213.696C122.997 213.833 122.59 213.999 122.181 214.136C121.391 214.4 120.638 214.209 119.851 214.397C116.354 215.225 115.252 218.895 115.668 222.106C115.932 224.126 117.366 225.83 117.706 227.811C117.941 229.175 117.887 230.659 118.356 231.988C119.09 234.061 120.594 234.087 122.537 234.068C124.577 234.049 126.12 231.812 127.888 230.85C128.621 230.452 129.456 230.086 130.284 229.946C130.694 229.876 131.065 229.914 131.462 229.821C131.928 229.713 132.093 229.516 132.646 229.56C133.575 229.637 134.509 230.408 135.324 230.844C136.445 231.443 137.527 232.379 138.308 233.386C139.089 234.393 139.854 235.578 140.904 236.416C141.399 236.811 141.929 236.785 142.488 237.05C142.799 237.196 143.059 237.448 143.364 237.597C145.125 238.461 147.699 238.47 149.563 238.027C151.289 237.62 153.032 236.941 154.317 235.645C155.057 234.902 155.653 234.176 155.942 233.182C156.126 232.551 156.45 232.058 156.482 231.382C156.52 230.586 156.46 229.767 156.46 228.971C156.46 227.028 156.777 224.83 156.082 223.004C155.784 222.221 155.669 221.485 155.269 220.695C154.869 219.905 154.323 219.15 153.797 218.462C153.413 217.962 152.943 217.557 152.502 217.108C151.956 216.554 151.594 215.929 151.121 215.314C150.724 214.798 150.143 214.505 149.75 213.996C149.226 213.314 149.01 212.447 148.575 211.727C148.058 210.867 147.442 209.931 146.662 209.271C145.389 208.201 144.637 208.937 143.961 210.173" fill="#80BA9B"/>
<path d="M175.208 228.391C175.208 229.684 175.176 230.825 175.583 232.058C176.002 233.332 176.573 234.179 176.42 235.584C176.319 236.517 175.557 237.642 174.932 238.314C174.132 239.177 172.996 239.881 171.942 240.423C170.974 240.923 170.409 241.458 169.701 242.309C168.993 243.159 168.324 244.274 167.978 245.338C167.689 246.221 167.397 248.17 168.089 248.951C168.911 249.878 170.949 249.814 171.933 249.327C173.869 248.365 175.319 246.59 176.5 244.829C177.303 243.631 178.296 242.771 179.309 241.78C180.321 240.789 181.178 239.289 181.778 237.954C182.283 236.83 182.168 234.998 182.07 233.759C181.988 232.739 181.54 231.105 181.102 230.175C180.613 229.133 179.683 228.595 178.699 228.088C178.001 227.732 176.087 226.368 175.805 227.799" fill="#80BA9B"/>
<path d="M321.041 201.508C320.866 200.546 318.737 200.116 317.997 199.734C317.419 199.434 316.912 199.071 316.28 198.88C315.547 198.66 314.817 198.593 314.131 198.236C313.005 197.653 311.633 196.927 310.681 196.064C309.58 195.064 308.599 194.035 307.393 193.124C305.946 192.028 304.165 191.372 302.578 190.515C300.963 189.642 299.033 189.193 297.309 188.587C296.233 188.211 295.084 188.145 294.101 187.619C293.117 187.093 292.009 186.762 290.936 186.504C288.518 185.921 286.318 185.376 283.83 185.376C283.189 185.376 282.544 185.36 281.903 185.376C280.989 185.392 280.364 185.969 279.44 185.985C278.647 185.997 278.056 185.896 277.301 185.717C276.2 185.459 275.609 184.902 274.632 184.408C273.53 183.85 272.464 183.245 271.375 182.665C270.153 182.016 269.03 181.028 267.833 180.302C266.852 179.703 265.938 179.12 265.249 178.212C264.313 176.982 262.812 176.151 261.803 174.934C260.603 173.485 259.803 170.423 260.365 168.585C260.682 167.547 262.32 166.725 263.301 166.572C264.523 166.381 265.954 166.559 267.195 166.559C268.934 166.559 270.798 166.371 272.53 166.553C273.479 166.655 273.943 167.292 274.282 168.19C274.679 169.245 275.098 170.293 275.581 171.328C276.022 172.274 276.558 173.809 277.872 173.3C279.269 172.758 279.269 170.86 278.786 169.754C278.031 168.021 277.736 166.069 278.989 164.463C279.986 163.186 280.643 161.739 281.617 160.456C282.278 159.586 282.636 158.652 282.938 157.608C283.17 156.805 283.427 155.977 283.712 155.193C284.017 154.362 284.591 153.912 285.15 153.25C286.032 152.199 287.261 151.864 288.533 151.396C289.632 150.994 290.841 150.752 291.879 150.208C292.828 149.711 293.628 148.554 294.259 147.694C295.043 146.624 294.735 145.518 294.837 144.314C294.938 143.151 295.751 141.297 296.624 140.549C298.3 140.574 297.725 144.951 299.28 145.69C299.868 145.971 301.007 145.722 301.616 145.588C302.654 145.359 303.756 144.286 304.041 143.26C304.279 142.406 304.137 141.161 304.086 140.265C304.029 139.256 303.537 138.364 303.181 137.437C302.41 135.43 301.239 134.257 299.325 133.496C298.373 133.117 297.782 132.219 296.979 131.591C296.303 131.065 295.659 130.196 295.119 129.508C294.529 128.759 293.983 127.8 293.485 126.975C292.948 126.09 293.101 125.029 292.593 124.118C291.298 121.786 289.527 125.411 288.061 125.016C287.356 124.825 286.832 123.382 286.296 122.853C285.509 122.079 284.563 120.996 283.544 120.524C282.021 119.817 279.615 119.833 279.342 122.063C279.186 123.315 279.307 124.819 279.719 125.991C280.04 126.902 280.554 127.332 280.567 128.342C280.576 129.129 280.557 129.919 280.561 130.709C280.567 132.693 280.148 134.844 279.592 136.755C279.354 137.574 279.253 138.593 278.193 138.762C277.317 138.905 276.244 137.593 275.777 136.914C275.311 136.236 275.063 135.318 274.825 134.515C274.552 133.592 274.746 132.63 274.302 131.754C273.752 130.674 272.845 130.556 271.842 130.11C271.274 129.858 270.728 129.562 270.166 129.294C269.363 128.915 268.446 128.753 267.674 128.332C266.719 127.81 265.894 126.86 265.37 125.921C264.621 124.58 264.453 123.025 265.361 121.687C265.976 120.782 266.656 120.059 267.398 119.285C268.052 118.6 268.55 117.858 269.309 117.266C269.998 116.73 270.499 116.482 271.02 115.787C271.635 114.966 272.292 114.207 272.895 113.376C274.286 111.458 275.942 109.649 276.104 107.119C276.171 106.084 276.257 105.441 277.034 104.641C277.812 103.842 278.723 103.31 279.84 103.724C281.354 104.284 282.284 107.11 282.586 108.594C282.881 110.06 282.646 111.911 282.646 113.398C282.646 114.226 282.535 114.997 282.906 115.765C283.277 116.533 284.271 117.664 285.077 118.103C286.385 118.817 288.67 118.508 290.092 118.46C292.256 118.39 292.104 116.208 292.549 114.555C292.933 113.124 292.783 111.57 292.764 110.088C292.752 108.843 293.215 107.696 292.913 106.441C292.482 104.644 291.028 103.204 289.927 101.8C289.562 101.334 289.308 100.79 288.895 100.356C288.413 99.85 287.813 99.4709 287.324 98.9612C286.508 98.1138 285.728 97.8017 284.712 97.241C283.969 96.8332 283.252 96.5561 282.57 96.0591C281.729 95.4475 281.23 94.8391 280.589 94.049C279.104 92.2269 276.653 90.0735 274.248 89.8282C271.172 89.5128 267.865 91.233 266.932 94.2625C266.56 95.4634 266.532 96.1706 267.147 97.2569C267.763 98.3432 268.76 99.0185 269.385 100.073C270.175 101.405 269.871 102.771 268.449 103.539C267.525 104.036 266.459 104.087 265.43 104.128C264.262 104.176 263.723 104.09 263.05 103.02C262.428 102.035 262.234 100.704 261.2 100.06C260.298 99.4996 259.178 99.6365 258.21 99.181C257 98.6108 256.489 97.3589 255.613 96.4032C254.947 95.6737 254.391 94.8709 253.687 94.1733C251.376 91.8765 248.472 90.2837 245.422 89.1624C242.661 88.1494 238.357 88.1876 236.183 90.3729C233.256 93.3164 237.551 95.61 239.721 97.2474C240.683 97.9705 241.108 98.7255 240.626 99.8755C240.02 101.325 238.334 101.395 236.97 101.592C233.551 102.089 230.273 101.083 226.88 101.124C225.908 101.137 224.909 100.987 224.004 101.414C223.011 101.882 222.179 102.14 221.068 102.198C219.377 102.281 217.983 101.519 216.545 100.751C215.911 100.414 215.238 99.8818 214.536 99.6843C214.003 99.5346 213.429 99.4932 212.886 99.353C209.956 98.5821 207.097 98.1871 204.081 98.1425C201.091 98.0979 199.168 99.8277 197.438 102.099C196.892 102.819 196.556 103.74 196.388 104.632C196.14 105.938 196.537 106.849 197.01 108.027C197.216 108.537 197.4 109.177 197.175 109.732C197.029 110.098 196.705 110.257 196.499 110.573C196.251 110.955 196.153 111.445 196.026 111.882C195.858 112.458 195.404 113.379 195.397 113.972C195.385 115.099 196.477 115.408 196.962 116.205C197.356 116.851 197.134 117.256 196.997 117.922C196.861 118.588 196.88 119.234 196.702 119.897C196.334 121.27 196.067 122.71 196.353 124.159C196.794 126.418 199.273 127.689 201.374 127.982C202.383 128.125 203.704 127.431 204.561 126.921C206.214 125.937 207.881 125.035 209.709 124.42C212.857 123.36 215.914 123.293 218.964 124.729C220.192 125.306 221.068 126.265 222.119 127.109C223.757 128.425 225.137 129.896 226.68 131.308C227.886 132.41 228.775 133.544 229.59 134.961C230.254 136.118 230.993 137.277 231.593 138.466C232.129 139.526 233.031 140.45 233.475 141.527C233.919 142.604 233.812 143.84 233.824 145.002C233.834 145.745 233.653 146.181 233.447 146.898C233.148 147.939 233.237 148.968 233.231 150.042C233.215 153.138 234.488 156.145 235.967 158.85C237.519 161.692 238.83 164.629 240.575 167.365C241.461 168.757 242.597 170.031 243.587 171.357C244.013 171.927 244.428 172.338 244.92 172.828C245.301 173.207 245.666 173.704 246.088 174.042C246.561 174.424 247.028 174.701 247.526 174.278C248.05 173.835 247.853 173.545 248.57 173.577C249.837 173.628 250.951 175.071 251.754 175.88C252.081 176.208 252.544 176.568 252.836 176.944C253.147 177.342 253.201 177.689 253.452 178.123C254.049 179.155 255.131 180.037 256.153 180.601C256.908 181.018 257.695 181.484 258.533 181.716C259.441 181.968 260.07 182.395 260.908 182.802C263.015 183.831 265.224 184.628 267.373 185.587C268.795 186.22 270.433 186.867 271.654 187.839C272.521 188.527 273.283 189.043 274.222 189.616C274.962 190.065 275.723 190.537 276.444 191.005C277.383 191.617 277.834 192.945 277.879 194.028C277.983 196.497 277.168 198.8 276.603 201.183C276.13 203.187 275.638 205.35 276.663 207.248C277.786 209.335 279.542 210.663 280.916 212.54C281.573 213.435 282.351 214.25 282.919 215.2C283.811 216.694 284.372 218.2 284.801 219.886C285.334 221.979 284.982 224.345 285.017 226.492C285.055 228.907 284.344 231.303 284.179 233.721C284.125 234.507 284.147 235.269 284.134 236.059C284.099 238.091 283.531 240.101 283.211 242.099C282.776 244.822 282.659 247.434 282.624 250.177C282.611 251.228 282.912 252.149 283.154 253.156C283.442 254.379 283.49 256.004 284.28 257.045C285.004 257.998 285.867 257.721 286.721 257.084C287.721 256.338 287.756 255.478 288.276 254.449C288.797 253.42 289.025 252.27 289.47 251.165C290.232 249.273 291.101 247.438 292.012 245.615C292.774 244.09 293.298 242.481 293.996 240.933C294.694 239.385 295.434 237.432 296.595 236.154C297.757 234.877 298.652 233.743 299.956 232.717C301.832 231.245 303.149 229.407 304.682 227.598C306.723 225.193 308.532 222.393 310.9 220.29C311.776 219.51 312.887 219.124 313.865 218.509C315.623 217.404 317.48 215.773 318.654 214.053C319.489 212.833 320.178 211.606 320.73 210.237C321.222 209.016 321.393 207.822 321.692 206.551C321.857 205.844 322.136 205.203 322.218 204.496C322.263 204.117 322.272 203.652 322.161 203.286C322.028 202.84 321.625 202.613 321.615 202.091" fill="#80BA9B"/>
<path d="M282.649 71.5684C283.392 70.9408 283.966 70.1221 284.725 69.485C285.442 68.8798 286.013 68.1789 286.81 67.6947C287.778 67.1022 288.416 66.3281 289.502 65.8853C290.355 65.5381 291.964 64.8564 291.561 63.5567C291.073 61.9925 288.384 62.7857 287.188 62.5405C286.477 62.3939 285.756 62.0786 285.023 61.9957C284.109 61.8906 283.274 61.9575 282.36 61.7791C280.957 61.5051 279.329 61.7122 277.894 61.7122C277.307 61.7122 276.679 61.6517 276.095 61.7058C275.374 61.7696 274.654 62.1072 273.943 62.3047C273.076 62.5436 272.264 63.0342 271.429 63.4069C270.594 63.7796 269.845 64.2798 269.039 64.6844C268.049 65.1813 267.363 65.6464 266.278 65.9618C265.192 66.2771 263.774 66.8633 263.282 67.9655C262.675 69.3162 262.869 71.3518 261.777 72.4699C260.32 73.9576 258.54 74.8686 256.48 74.8591C254.42 74.8495 252.519 74.9642 250.586 74.6265C249.656 74.4641 248.755 74.515 247.812 74.3271C246.949 74.1551 246.022 74.2602 245.143 74.2602C243.768 74.2602 242.835 74.292 241.578 74.9323C240.182 75.6427 238.877 76.4232 237.643 77.3661C236.694 78.0924 234.665 80.9913 236.805 81.6985C238.296 82.1923 240.121 81.227 241.578 81.9852C242.305 82.3611 242.391 82.874 242.753 83.5366C243.076 84.1291 243.6 84.4604 244.19 84.7439C245.101 85.1772 246.301 85.1039 247.291 84.951C248.596 84.7503 249.132 84.6515 250.142 85.6805C250.776 86.324 251.322 87.0471 251.973 87.6874C253.614 89.3057 255.68 90.6213 257.581 91.9083C258.045 92.2205 258.638 92.3001 259.079 92.6091C259.521 92.9181 259.917 93.5361 260.27 93.9757C260.663 94.4727 260.736 94.8645 260.996 95.4029C261.219 95.8584 261.466 96.7057 261.825 97.0148C262.352 96.3107 262.314 94.5268 262.415 93.6635C262.51 92.8512 262.952 92.1504 263.025 91.354C263.151 89.9714 263.025 87.4325 264.475 86.7795C266.113 86.0404 267.071 87.0694 268.5 87.7065C269.28 88.0537 269.941 87.9996 270.785 88.0059C271.829 88.0123 272.073 87.9613 272.705 87.0949C273.264 86.3271 273.708 85.6454 274.086 84.7917C274.441 83.9857 275.019 83.0524 275.79 82.6191C276.711 82.0999 277.52 81.673 277.844 80.5549C278.167 79.4367 277.882 77.8471 277.888 76.6876C277.894 75.528 277.812 75.0534 277.279 74.034C276.974 73.4479 276.615 72.0813 277.266 71.6002C277.396 71.5047 277.774 71.5556 277.936 71.5142C278.453 71.3772 278.853 71.0746 279.389 70.9886C280.443 70.8198 281.122 71.0874 282.055 71.5716" fill="#80BA9B"/>
<path d="M63.0061 96.9607C63.0061 94.2211 62.7109 91.5261 64.3424 89.1815C65.1168 88.0665 66.3927 87.5696 67.4782 86.805C68.3003 86.2285 69.0652 85.5213 69.919 85.0052C70.2998 84.7727 70.7283 84.658 71.1155 84.4318C71.6202 84.1387 72.0074 83.7087 72.5216 83.4379C73.6928 82.8231 74.2958 82.4759 74.9306 81.2016C75.4099 80.2428 75.4575 78.8985 74.6323 78.1435C73.5023 77.1082 72.5152 76.9393 71.0203 76.9489C70.3157 76.9521 69.3413 76.796 68.6589 77.0062C67.5353 77.3534 66.8275 77.9587 66.0499 78.822C65.3294 79.6216 64.6756 80.453 63.8345 81.1284C62.9395 81.8483 62.1714 82.4759 61.5207 83.4379C61.1303 84.0145 60.6352 84.6134 60.3146 85.2314C60.048 85.7443 59.9782 86.2731 59.7497 86.805C59.4386 87.5377 58.8864 88.0665 58.8197 88.882C58.7689 89.4714 58.8419 90.0957 58.8419 90.6883C58.8419 91.4114 58.6832 92.3097 58.8864 93.0105C59.0419 93.5394 59.4767 94.0873 59.7338 94.5842C60.3654 95.7947 61.4287 96.3904 62.4126 97.2569" fill="#80BA9B"/>
<path d="M153.184 83.817C152.679 83.2977 151.968 83.1767 151.413 82.7466C150.959 82.3962 150.727 81.7209 150.21 81.4724C149.918 81.3322 149.626 81.3004 149.321 81.1379C148.915 80.9181 148.579 80.7493 148.141 80.5422C147.046 80.0325 146.024 79.8605 144.878 79.491C143.872 79.166 143.262 78.7201 142.167 78.7424C141.564 78.7551 140.901 78.6309 140.32 78.7933C139.32 79.0737 138.203 79.9401 137.413 80.5772C136.34 81.4437 135.918 82.7466 135.918 84.0718C135.918 84.8555 135.765 85.7442 136.372 86.3463C137.93 87.9009 139.466 85.6805 140.983 85.6041C142.501 85.5276 143.535 85.843 144.852 86.4228C145.433 86.6808 146.014 86.9866 146.639 87.1172C147.436 87.2861 148.509 87.1013 149.321 87.1013C149.845 87.1013 150.607 87.2606 151.102 87.0631C151.597 86.8656 151.67 86.2985 151.994 85.9609C152.575 85.362 152.813 85.346 152.889 84.4127" fill="#80BA9B"/>
<path d="M55.2681 207.78C54.7856 207.771 54.6015 208.303 54.3095 208.605C53.9636 208.959 53.5319 209.22 53.1764 209.568C52.4337 210.3 51.8243 211.249 51.2276 212.1C50.3135 213.406 49.8692 214.808 49.3518 216.295C48.8821 217.649 48.717 218.901 48.7202 220.328C48.7202 221.058 48.752 221.848 49.3582 222.383C49.72 222.705 51.1356 223.237 51.6942 223.329C52.1703 223.409 52.9733 223.387 53.332 223.129C53.9921 222.651 54.6587 221.427 54.6936 220.634C54.7412 219.516 54.6047 218.564 54.9697 217.477C55.2078 216.77 55.2554 216.273 55.2681 215.547C55.2934 214.199 55.887 213.002 55.8648 211.664C55.8521 210.991 56.1218 210.517 56.1695 209.87C56.2266 209.096 55.9663 208.526 55.8648 207.78" fill="#80BA9B"/>
<path d="M103.782 189.858C103.782 190.903 104.261 193.063 103.201 193.592C102.757 193.812 101.919 193.952 101.436 194.016C100.77 194.102 100.221 193.84 99.7349 194.366C98.6748 195.522 100.024 196.918 100.722 197.841C101.738 199.183 102.903 200.329 104.093 201.524C104.597 202.031 105.074 202.556 105.632 203.002C106.191 203.448 106.749 204.047 107.33 204.445C108.663 205.356 110.593 205.092 112.113 205.095C113.345 205.095 114.383 205.194 115.452 204.512C116.693 203.722 117.652 202.569 118.785 201.658C119.604 200.995 120.239 200.116 121.029 199.418C121.521 198.985 122.026 198.765 122.394 198.214C122.87 197.497 123.425 196.408 123.67 195.583C124.206 193.777 124.162 191.671 122.689 190.308C120.953 188.696 118.007 188.536 115.728 188.661C114.602 188.721 114.068 189.432 113.745 190.486C113.405 191.588 112.764 192.786 112.707 193.895C112.678 194.414 112.574 194.726 112.408 195.217C112.161 195.952 112.234 196.79 111.948 197.491C111.412 198.81 109.355 199.629 107.997 199.074C106.502 198.463 105.54 196.723 105.562 195.223C105.575 194.439 105.308 194.102 105.032 193.388C104.667 192.448 104.607 191.652 104.074 190.757" fill="#80BA9B"/>
<path d="M152.292 203.298C151.562 203.251 150.499 202.486 149.912 202.104C149.179 201.629 148.534 201.24 147.849 200.693C146.243 199.402 144.434 198.431 142.469 197.848C141.688 197.615 140.876 197.147 140.088 197.01C139.533 196.914 138.866 197.023 138.301 197.026C137.064 197.026 133.909 197.185 135.283 199.288C135.743 199.992 137.041 200.444 137.711 200.916C138.346 201.362 139.101 201.68 139.708 202.148C140.174 202.508 140.742 203.066 141.009 203.582C141.291 204.123 141.174 204.859 141.539 205.35C142.174 206.204 143.329 205.99 144.259 205.987C145.509 205.981 146.76 205.987 148.011 205.987C148.69 205.987 149.375 206.009 150.055 205.987C151.194 205.952 151.902 205.783 151.991 204.49" fill="#80BA9B"/>
<path d="M234.434 176.715C233.948 176.718 233.405 176.801 232.929 176.664C232.593 176.568 232.342 176.278 232.031 176.167C231.441 175.96 230.987 175.957 230.39 175.635C229.676 175.249 229.2 175.061 228.632 174.478C228.13 173.966 227.657 173.357 227 173.045C225.928 172.529 223.496 172.634 222.582 173.462C221.033 174.87 222.22 177.715 223.268 178.973C223.823 179.642 224.223 180.531 224.61 181.308C224.95 181.996 225.267 182.99 225.851 183.465C226.362 183.882 227.27 183.984 227.883 184.265C228.346 184.478 228.829 184.554 229.349 184.497C230.974 184.319 232.396 183.455 233.256 182.082C233.774 181.254 234.126 180.394 234.151 179.4C234.167 178.715 233.57 177.17 234.135 176.715" fill="#80BA9B"/>
<path d="M146.935 144.155C147.566 144.661 145.713 146.926 145.44 147.433C144.856 148.519 144.272 149.793 144.256 151.023C144.246 151.896 144.249 152.597 144.021 153.415C143.875 153.938 143.856 154.362 143.665 154.9C143.44 155.531 143.015 156.142 142.824 156.773C142.783 157.072 142.745 157.369 142.716 157.668C142.574 157.993 142.389 158.296 142.161 158.57C141.91 159.044 141.701 159.548 141.501 160.048C141.034 161.214 140.726 162.408 140.301 163.587C139.996 164.431 139.815 165.052 139.79 165.954C139.771 166.642 139.714 166.731 140.345 167.148C140.761 167.419 141.533 167.913 142.021 168.034C144.653 168.684 146.827 165.842 147.449 163.587C147.868 162.071 148.137 160.277 147.525 158.786C146.906 157.283 147.331 156.031 147.83 154.581C148.137 153.689 148.556 152.676 148.998 151.839C149.62 150.66 150.451 149.704 150.737 148.35C150.902 147.57 150.791 146.723 150.794 145.933C150.797 145.353 150.991 144.575 150.534 144.117C150.191 143.773 149.166 143.693 148.706 143.617C148.198 143.534 147.598 143.359 147.223 143.846" fill="#80BA9B"/>
<path d="M138.273 134.914C139.051 134.057 139.812 133.136 140.564 132.25C141.732 130.877 143.113 130.122 144.621 129.176C145.43 128.67 146.601 128.278 147.5 127.889C148.191 127.59 149.061 127.224 149.801 127.087C150.499 126.956 151.527 127.026 152.248 127.09C152.784 127.138 153.349 127.326 153.854 127.52C154.698 127.842 154.949 128.6 155.225 129.431C155.552 130.406 155.514 131.196 155.561 132.19C155.606 133.13 155.996 134.006 156.164 134.907C156.241 135.325 156.085 135.767 156.174 136.191C156.256 136.58 156.371 136.984 156.463 137.37C156.764 138.647 158.116 140.068 159.567 139.504C160.925 138.978 160.855 137.121 161.478 136.083C161.735 135.649 162.027 135.363 162.214 134.914C162.42 134.42 162.658 133.913 162.855 133.407C163.344 132.145 163.325 130.568 164.217 129.546C165.074 128.558 165.915 127.405 167.264 127.125C168.019 126.966 168.4 126.759 169.095 126.367C169.654 126.051 170.238 125.927 170.809 125.653C171.869 125.143 172.907 124.818 173.996 124.388C175.208 123.911 176.195 123.181 177.281 122.461C178.557 121.614 179.845 120.999 180.943 119.871C181.896 118.893 183.098 118.307 183.987 117.266C184.46 116.711 184.898 116.068 185.285 115.45C185.672 114.832 186.263 114.054 186.564 113.363C187.031 112.293 186.71 110.687 186.72 109.518C186.733 107.925 186.237 106.61 185.425 105.246C183.955 102.781 181.473 102.023 178.941 101.051C178.271 100.793 177.547 100.694 176.893 100.401C176.471 100.213 176.17 99.9678 175.709 99.8786C174.592 99.6652 173.161 99.9009 172.015 99.8946C170.587 99.885 169.26 100.181 167.825 100.184C166.648 100.184 165.47 100.184 164.293 100.184C162.201 100.184 159.776 100.528 157.799 99.8213C156.653 99.4135 155.615 98.7573 154.476 98.3623C153.276 97.945 152.14 97.3716 151 96.7759C149.137 95.8043 147.249 94.9474 145.249 94.1796C143.202 93.3928 140.653 91.7618 138.543 93.2303C137.648 93.8547 136.784 94.4791 135.778 94.976C134.909 95.4061 133.963 96.0974 133.026 96.3618C132.09 96.6262 130.738 96.4956 129.773 96.4318C129.199 96.3936 128.669 96.2025 128.24 95.7979C127.91 95.4889 127.713 95.0493 127.393 94.7339C127.031 94.3771 126.618 94.2083 126.19 93.9567C125.13 93.3323 123.949 92.9182 122.724 92.692C122.229 92.5996 121.803 92.4562 121.327 92.2906C120.734 92.0867 120.277 92.1186 119.658 92.0931C118.22 92.0326 116.842 91.5101 115.401 91.4974C114.443 91.4878 112.999 91.6407 112.612 90.4812C112.269 89.4491 112.964 87.8977 113.259 86.8942C113.662 85.5244 113.469 83.9508 113.469 82.53C113.469 81.6412 113.754 80.1854 113.221 79.4113C112.754 78.7328 111.891 78.5703 111.145 78.4716C110.479 78.3824 109.92 78.0352 109.276 77.9205C108.476 77.7771 107.692 77.6051 106.864 77.6115C105.896 77.6178 104.626 77.4044 103.661 77.5924C102.49 77.8185 101.773 79.5387 101.277 80.5135C100.855 81.3354 100.316 82.4981 99.5762 83.0461C98.4844 83.852 97.1926 84.2916 96.0944 85.139C95.0058 85.9768 93.86 86.6712 92.7047 87.3976C92.1683 87.7352 91.5367 87.8372 90.9685 88.1048C90.5337 88.3086 90.1877 88.6272 89.7624 88.8374C89.2419 89.0955 88.7341 89.1624 88.2421 89.5C87.474 90.0225 86.9598 90.5545 86.3536 91.233C85.9854 91.6439 85.5696 92.0262 85.1412 92.3702C84.5762 92.8226 84.2302 93.3641 83.7002 93.8388C82.6687 94.7626 81.6752 95.301 80.3231 95.6386C78.8409 96.0082 77.2761 95.5654 75.8352 95.9827C74.664 96.3203 73.15 96.7823 72.2169 97.5786C71.4329 98.2476 70.6045 98.8051 69.8079 99.4677C68.6875 100.395 67.7797 101.347 66.4721 101.991C65.7865 102.328 65.2152 102.803 64.4661 103.02C63.6092 103.268 62.7173 103.446 61.854 103.673C60.2035 104.1 58.7816 104.855 57.1819 105.386C55.6299 105.903 54.2683 106.798 52.7734 107.432C52.2338 107.661 51.6403 107.817 51.1102 108.059C50.1295 108.505 49.7613 109.432 48.5933 109.477C47.9236 109.502 47.2221 109.49 46.5556 109.47C45.7399 109.448 45.4765 109.231 44.848 108.747C43.5308 107.728 42.8611 106.712 42.3882 105.135C42.0391 103.972 41.398 102.816 40.2871 102.274C39.2079 101.749 37.8082 101.637 36.6212 101.643C34.2471 101.656 31.4635 101.344 29.2703 102.411C28.3467 102.86 27.4961 103.59 26.5693 104.077C25.9218 104.421 25.5632 104.842 25.03 105.336C23.5922 106.667 21.9068 107.69 20.615 109.193C19.5327 110.455 18.5075 111.866 17.5172 113.201C16.235 114.927 15.2733 116.851 14.7305 118.925C14.2576 120.738 13.845 123.035 14.7654 124.748C15.7462 126.571 16.6444 128.345 18.3107 129.664C19.6152 130.699 21.6053 130.858 23.17 130.387C24.9506 129.849 25.6806 127.418 25.8139 125.73C25.9567 123.923 26.1186 122.219 26.09 120.391C26.0647 118.807 26.5312 116.921 28.1277 116.16C29.0767 116.899 28.6895 118.855 28.6927 119.9C28.6927 121.021 28.7625 122.025 28.9752 123.13C29.1275 123.917 29.2608 124.465 29.6131 125.21C30.0099 126.042 30.5875 127.004 30.6859 127.944C30.8065 129.109 30.2289 130.04 29.3878 130.75C28.0833 131.859 26.1916 132.448 24.6396 133.123C23.0875 133.799 21.4148 134.433 19.8818 135.213C19.2407 135.538 18.8439 135.863 18.1108 136.019C16.7936 136.296 15.3939 136.395 14.0576 136.599C12.769 136.793 11.5693 137.026 10.2616 136.968C8.36677 136.882 7.38285 134.27 6.48146 132.891C5.68162 131.667 4.96749 131.311 3.39639 131.444C0.847714 131.661 -2.16118 133.668 -3.56089 135.825C-4.06237 136.596 -3.7291 137.198 -3.31967 137.984C-3.09114 138.424 -2.79279 138.956 -2.47857 139.342C-1.97709 139.953 -1.38039 140.202 -0.777342 140.702C0.0605774 141.396 0.860411 142.463 1.58407 143.301C2.36803 144.206 2.85682 145.365 3.09486 146.5C3.31387 147.532 3.29165 147.742 2.81238 148.745C2.26964 149.886 1.44124 150.689 0.669975 151.695C-0.437729 153.145 -1.43752 154.374 -2.2437 156.043C-2.95149 157.512 -4.16711 159.57 -2.82136 160.937C-2.36748 161.398 -1.85013 162.032 -1.30739 162.373C-0.828125 162.673 -0.701168 162.673 -0.142555 162.418C0.841366 161.969 1.80307 161.287 2.69177 160.675C3.97404 159.793 5.51658 158.971 6.5608 157.805C7.48759 156.77 8.73813 155.817 9.99501 155.177C11.0202 154.655 12.3279 154.661 13.4324 154.397C14.7051 154.088 15.0701 153.782 16.0731 154.811C16.9205 155.68 17.6601 157.031 18.8566 157.461C20.2976 157.98 22.4115 157.898 22.9002 156.066C23.1891 154.983 22.7511 153.893 23.17 152.791C23.7064 151.383 25.0236 150.446 26.4424 151.294C27.3057 151.81 28.0008 152.762 28.7022 153.463C29.3656 154.123 29.9622 154.674 30.4256 155.486C31.2985 157.012 32.9775 158.433 34.8025 157.394C35.961 156.735 36.6085 155.228 37.3988 154.225C38.005 153.457 38.5827 152.906 39.3571 152.272C40.1315 151.638 42.3724 149.22 43.6895 149.723C44.9274 150.195 45.705 153.31 45.3749 154.495C45.0162 155.779 43.607 156.295 42.7977 157.209C42.3724 157.69 41.9597 158.516 41.9312 159.178C41.8994 160.003 42.5184 160.538 41.855 161.312C41.0869 162.204 39.0715 162.803 38.0336 163.195C36.8497 163.641 35.7547 163.791 34.5169 163.956C32.3522 164.246 30.2955 164.262 28.1563 163.794C26.928 163.526 25.852 163.348 24.6745 162.854C23.4112 162.322 22.0179 161.87 20.6721 161.618C19.2883 161.36 17.8664 161.303 16.4984 160.988C15.1304 160.672 13.8037 160.099 12.3469 160.099C10.0902 160.099 8.21125 160.806 6.45924 162.188C5.56419 162.896 4.65009 163.23 3.61856 163.721C2.45055 164.278 1.3492 164.864 0.146275 165.342C-1.58352 166.03 -2.35796 167.174 -3.25619 168.722C-4.0465 170.086 -4.50037 171.509 -4.69716 173.074C-4.81142 173.975 -5.03994 174.886 -5.05581 175.785C-5.0812 176.919 -5.04946 178.059 -5.04946 179.196C-5.04946 180.894 -5.26846 182.748 -4.98916 184.417C-4.70985 186.087 -4.22741 187.788 -3.00862 188.979C-1.87235 190.091 -0.498035 190.754 0.936585 191.368C4.25652 192.789 7.93195 192.522 11.4677 192.522C12.4009 192.522 13.3372 192.362 14.1814 192.789C14.8829 193.146 15.7017 193.496 16.3556 193.933C16.9269 194.312 17.0919 194.818 17.4538 195.363C17.7648 195.835 18.1076 196.061 18.3266 196.618C18.5837 197.265 18.6376 197.956 18.8884 198.609C19.2153 199.463 19.4724 200.368 19.739 201.244C20.6055 204.069 21.9163 206.637 22.9383 209.376C23.4557 210.762 23.5128 212.17 23.4938 213.629C23.4811 214.578 23.5858 215.413 23.7255 216.343C23.8778 217.359 23.6461 218.392 23.8524 219.398C24.392 222.023 24.3983 224.772 25.7885 227.177C26.8137 228.945 28.8101 230.197 30.778 230.682C32.7553 231.169 34.0217 230.325 35.7039 229.388C37.8654 228.187 40.5251 226.913 41.5249 224.492C41.8709 223.651 41.9566 222.73 42.2422 221.87C42.6199 220.733 42.9405 219.736 43.169 218.557C43.3468 217.64 43.7181 217.073 44.2577 216.331C44.9337 215.4 45.4987 214.41 46.0573 213.406C47.3269 211.125 48.1457 208.43 48.3076 205.818C48.4092 204.158 48.5901 202.578 48.5901 200.909C48.5901 199.24 48.3076 197.319 49.0662 195.713C49.8438 194.079 50.6087 191.837 51.8561 190.495C52.5575 189.744 53.6017 189.228 54.3794 188.549C55.2585 187.781 56.2266 186.832 56.9058 185.873C57.3533 185.242 58.3436 183.296 57.8167 182.665L56.8296 182.382C55.9124 182.223 55.0046 182.031 54.1001 181.815C52.6718 181.42 51.1578 180.907 49.8057 180.305C48.6409 179.782 47.5776 179.126 46.3779 178.667C45.5336 178.343 44.3053 178.186 44.0069 177.177C43.7435 176.285 43.8546 174.982 43.753 174.045C43.661 173.201 43.4198 171.86 43.7689 171.054C44.4545 171.041 45.3114 172.121 45.7462 172.452C46.6127 173.112 47.4919 173.743 48.3267 174.443C50.2945 176.1 52.7829 177.591 55.2585 178.368C56.8169 178.859 58.4896 179.062 60.0988 179.285C61.5017 179.48 62.8633 179.865 63.7647 178.483C64.8248 176.852 64.7327 174.701 64.7391 172.841C64.7454 171.487 64.701 170.372 63.9075 169.187C63.552 168.655 60.5908 166.524 60.8891 166.091C62.2063 166.336 63.095 167.808 63.898 168.735C64.5011 169.429 65.1454 170.238 65.8817 170.812C67.475 172.054 70.0269 172.57 71.9344 173.074C73.1564 173.395 74.353 173.542 75.4353 174.233C77.9776 175.858 79.3995 179.062 80.6183 181.738C81.4562 183.576 81.6213 185.52 82.6274 187.259C83.7288 189.158 84.8999 187.574 85.7379 186.3C87.036 184.325 87.1471 181.92 88.0771 179.814C88.5151 178.82 89.3466 178.014 90.1496 177.317C91.5144 176.132 92.9618 174.928 94.4313 173.876C95.5707 173.061 96.1262 174.138 96.7197 175.112C97.4148 176.246 98.1575 177.352 98.7002 178.569C99.1382 179.547 99.3826 180.193 100.309 180.732C101.236 181.27 102.687 181.799 103.356 182.783C103.893 183.567 103.477 184.44 103.69 185.265C103.985 186.408 105.016 186.064 105.905 186.224C106.724 186.37 106.94 186.514 107.746 186.189C108.876 185.736 109.952 185.134 110.752 184.201C112.078 182.653 112.732 180.776 112.542 178.699C112.462 177.823 112.097 176.864 112.504 176.001C113.275 174.364 115.513 174.189 116.95 173.574C118.239 173.019 119.569 172.315 120.562 171.309C121.816 170.038 122.911 167.948 123.533 166.269C124.044 164.896 124 163.243 124.076 161.816C124.187 159.65 124.133 157.487 124.136 155.32C124.136 153.447 123.463 150.883 125.603 150.007C126.348 150.622 126.475 152.237 126.675 153.129C126.809 153.721 126.936 154.301 127.104 154.884C127.383 155.849 127.11 156.4 126.907 157.346C126.713 158.235 126.675 159.146 126.507 160.045C126.399 160.612 126.215 161.22 126.821 161.523C127.437 161.825 128.57 161.144 129.094 161.586C129.859 162.233 129.005 164.055 128.783 164.645C128.38 165.712 127.367 167.4 127.643 168.601C128.802 169.155 130.325 167.607 131.151 166.989C132.519 165.967 133.528 164.944 134.204 163.348C134.61 162.392 134.747 161.424 134.972 160.424C135.099 159.857 135.334 159.388 134.769 158.984C134.474 158.997 134.191 158.946 133.918 158.834C133.744 158.582 133.629 158.305 133.575 158.003C133.366 157.346 133.379 156.684 133.103 156.043C132.858 155.476 132.544 154.995 132.147 154.524C131.611 153.89 131.439 153.342 131.068 152.629C130.763 152.042 130.386 151.953 130.83 151.354C131.211 150.841 132.823 150.313 133.369 150.036C134.667 149.379 136.143 148.968 137.362 148.178C138.943 147.156 140.234 145.69 141.402 144.241C142.107 143.365 143.193 142.288 143.761 141.278C144.329 140.269 143.542 138.768 143.18 137.838C142.428 135.892 140.869 135.041 138.851 134.917" fill="#62AF83"/>
<path d="M143.415 211.16C142.478 211.16 141.161 211.409 140.298 210.972C139.435 210.536 138.882 209.548 138.168 208.899C136.483 207.363 133.464 207.768 131.69 208.844C130.76 209.408 130.033 210.112 129.164 210.74C128.377 211.307 127.516 211.778 126.717 212.32C125.809 212.932 124.873 213.642 123.822 213.995C123.425 214.129 123.032 214.289 122.635 214.419C121.87 214.677 121.143 214.492 120.381 214.671C116.998 215.474 115.935 219.022 116.335 222.128C116.589 224.084 117.976 225.731 118.306 227.646C118.531 228.965 118.48 230.401 118.934 231.685C119.645 233.692 121.099 233.717 122.978 233.698C124.952 233.679 126.444 231.516 128.154 230.586C128.865 230.201 129.672 229.847 130.471 229.71C130.865 229.643 131.227 229.678 131.608 229.589C132.058 229.484 132.217 229.293 132.753 229.337C133.652 229.41 134.556 230.159 135.343 230.576C136.429 231.153 137.473 232.061 138.232 233.036C139.016 234.042 139.73 235.154 140.742 235.966C141.221 236.349 141.736 236.323 142.275 236.578C142.577 236.718 142.827 236.963 143.123 237.107C144.827 237.941 147.315 237.951 149.118 237.524C150.788 237.129 152.473 236.473 153.717 235.221C154.431 234.501 155.012 233.8 155.292 232.838C155.469 232.227 155.78 231.749 155.812 231.099C155.85 230.328 155.79 229.538 155.79 228.767C155.79 226.888 156.098 224.763 155.422 222.995C155.133 222.237 155.022 221.523 154.635 220.762C154.247 220 153.717 219.268 153.209 218.602C152.838 218.118 152.384 217.726 151.956 217.293C151.426 216.757 151.077 216.152 150.62 215.56C150.235 215.063 149.674 214.776 149.293 214.282C148.785 213.623 148.579 212.785 148.157 212.087C147.655 211.256 147.062 210.348 146.306 209.711C145.075 208.676 144.348 209.386 143.694 210.584" fill="#62AF83"/>
<path d="M175.192 228.898C175.192 230.127 175.164 231.207 175.548 232.379C175.944 233.59 176.487 234.396 176.344 235.727C176.249 236.613 175.522 237.68 174.929 238.321C174.167 239.139 173.088 239.808 172.091 240.324C171.171 240.799 170.638 241.305 169.965 242.115C169.292 242.924 168.657 243.981 168.327 244.991C168.054 245.829 167.775 247.68 168.432 248.422C169.212 249.301 171.149 249.244 172.082 248.779C173.919 247.865 175.297 246.179 176.417 244.507C177.179 243.37 178.122 242.554 179.083 241.611C180.045 240.668 180.858 239.248 181.429 237.98C181.908 236.913 181.8 235.173 181.705 233.995C181.629 233.026 181.2 231.475 180.788 230.592C180.324 229.605 179.439 229.092 178.506 228.611C177.842 228.27 176.024 226.977 175.757 228.334" fill="#62AF83"/>
<path d="M318.962 200.559C318.794 199.628 316.734 199.211 316.02 198.842C315.461 198.552 314.969 198.201 314.36 198.017C313.652 197.803 312.944 197.739 312.284 197.395C311.195 196.832 309.869 196.128 308.951 195.296C307.888 194.331 306.936 193.334 305.774 192.455C304.375 191.394 302.654 190.76 301.121 189.932C299.588 189.103 297.697 188.654 296.027 188.071C294.986 187.708 293.878 187.644 292.926 187.138C291.99 186.641 290.904 186.31 289.867 186.061C287.531 185.497 285.404 184.972 282.998 184.972C282.376 184.972 281.754 184.956 281.135 184.972C280.253 184.988 279.646 185.545 278.755 185.558C277.986 185.571 277.415 185.472 276.688 185.3C275.625 185.051 275.054 184.51 274.108 184.032C273.041 183.494 272.013 182.907 270.959 182.35C269.779 181.722 268.69 180.77 267.535 180.063C266.586 179.486 265.703 178.919 265.037 178.043C264.132 176.855 262.682 176.052 261.707 174.873C260.549 173.472 259.774 170.516 260.317 168.738C260.625 167.735 262.206 166.941 263.155 166.792C264.335 166.607 265.719 166.779 266.919 166.779C268.601 166.779 270.401 166.597 272.073 166.776C272.991 166.874 273.438 167.489 273.768 168.359C274.152 169.378 274.555 170.391 275.025 171.392C275.451 172.306 275.968 173.79 277.241 173.3C278.593 172.777 278.59 170.939 278.126 169.872C277.396 168.196 277.11 166.311 278.323 164.759C279.288 163.526 279.923 162.125 280.862 160.886C281.5 160.045 281.849 159.143 282.138 158.133C282.36 157.356 282.608 156.56 282.887 155.801C283.182 154.999 283.738 154.565 284.277 153.922C285.128 152.906 286.318 152.581 287.55 152.132C288.61 151.743 289.781 151.507 290.784 150.982C291.701 150.501 292.472 149.382 293.085 148.551C293.843 147.516 293.545 146.449 293.644 145.283C293.742 144.117 294.526 142.365 295.37 141.641C296.989 141.664 296.437 145.897 297.938 146.611C298.506 146.882 299.607 146.643 300.198 146.512C301.201 146.289 302.264 145.254 302.54 144.26C302.769 143.435 302.632 142.231 302.585 141.368C302.531 140.39 302.054 139.529 301.708 138.634C300.963 136.694 299.83 135.563 297.979 134.824C297.059 134.458 296.491 133.592 295.713 132.983C295.062 132.473 294.437 131.632 293.916 130.97C293.348 130.243 292.818 129.32 292.336 128.523C291.815 127.666 291.965 126.644 291.476 125.761C290.225 123.509 288.514 127.013 287.093 126.631C286.41 126.446 285.905 125.051 285.388 124.541C284.626 123.793 283.712 122.748 282.728 122.289C281.256 121.604 278.932 121.62 278.666 123.777C278.517 124.987 278.631 126.44 279.031 127.574C279.339 128.453 279.837 128.871 279.85 129.848C279.859 130.61 279.84 131.374 279.843 132.136C279.85 134.053 279.446 136.13 278.907 137.981C278.678 138.771 278.577 139.756 277.555 139.921C276.707 140.058 275.673 138.79 275.219 138.134C274.765 137.478 274.527 136.592 274.298 135.818C274.035 134.923 274.222 133.996 273.791 133.149C273.26 132.107 272.381 131.992 271.413 131.562C270.864 131.32 270.337 131.03 269.795 130.775C269.02 130.409 268.131 130.25 267.389 129.845C266.465 129.342 265.668 128.421 265.161 127.513C264.437 126.217 264.275 124.713 265.151 123.42C265.745 122.544 266.405 121.846 267.119 121.098C267.751 120.435 268.233 119.718 268.966 119.145C269.633 118.626 270.115 118.39 270.62 117.715C271.216 116.918 271.848 116.189 272.432 115.383C273.775 113.529 275.378 111.78 275.533 109.337C275.597 108.336 275.679 107.715 276.431 106.941C277.183 106.167 278.063 105.654 279.142 106.055C280.605 106.597 281.506 109.327 281.795 110.764C282.084 112.2 281.856 113.968 281.852 115.405C281.852 116.208 281.744 116.95 282.103 117.692C282.462 118.435 283.42 119.527 284.201 119.951C285.464 120.639 287.673 120.343 289.048 120.295C291.139 120.225 290.993 118.116 291.422 116.52C291.793 115.137 291.647 113.637 291.631 112.204C291.619 110.999 292.066 109.891 291.777 108.677C291.361 106.941 289.955 105.549 288.889 104.192C288.537 103.743 288.289 103.214 287.892 102.797C287.426 102.306 286.845 101.94 286.372 101.449C285.585 100.63 284.829 100.328 283.846 99.7862C283.128 99.3912 282.433 99.1236 281.776 98.6458C280.964 98.0533 280.481 97.4639 279.862 96.7026C278.428 94.941 276.06 92.8608 273.733 92.6219C270.763 92.316 267.566 93.9789 266.662 96.9065C266.303 98.066 266.275 98.7509 266.871 99.799C267.455 100.828 268.43 101.503 269.036 102.519C269.801 103.806 269.503 105.128 268.131 105.867C267.24 106.348 266.208 106.396 265.215 106.438C264.085 106.482 263.564 106.399 262.913 105.367C262.314 104.415 262.126 103.128 261.127 102.507C260.257 101.965 259.171 102.099 258.238 101.659C257.07 101.108 256.575 99.8977 255.731 98.9739C255.087 98.2699 254.547 97.4926 253.868 96.8173C251.633 94.5969 248.828 93.0551 245.879 91.9752C243.21 90.9972 239.049 91.0323 236.951 93.1443C234.123 95.989 238.274 98.2062 240.372 99.7894C241.302 100.49 241.712 101.22 241.248 102.328C240.661 103.727 239.033 103.797 237.712 103.988C234.408 104.466 231.238 103.497 227.959 103.536C227.019 103.548 226.055 103.402 225.179 103.816C224.22 104.268 223.414 104.52 222.341 104.571C220.706 104.651 219.361 103.915 217.967 103.172C217.355 102.844 216.704 102.331 216.025 102.14C215.511 101.994 214.952 101.956 214.428 101.819C211.597 101.073 208.833 100.691 205.919 100.646C203.005 100.602 201.171 102.274 199.498 104.469C198.968 105.163 198.644 106.055 198.483 106.919C198.244 108.183 198.625 109.063 199.086 110.2C199.286 110.694 199.46 111.312 199.244 111.85C199.101 112.204 198.79 112.36 198.594 112.662C198.356 113.032 198.26 113.506 198.137 113.927C197.975 114.484 197.534 115.373 197.527 115.947C197.514 117.036 198.571 117.336 199.041 118.106C199.422 118.731 199.206 119.123 199.076 119.766C198.946 120.41 198.962 121.034 198.79 121.674C198.435 123.003 198.178 124.395 198.451 125.793C198.879 127.975 201.272 129.205 203.304 129.489C204.281 129.625 205.554 128.957 206.386 128.463C207.982 127.513 209.594 126.641 211.362 126.048C214.406 125.026 217.361 124.959 220.31 126.344C221.497 126.902 222.344 127.829 223.36 128.644C224.944 129.919 226.277 131.339 227.768 132.703C228.933 133.77 229.793 134.863 230.581 136.236C231.222 137.354 231.936 138.475 232.517 139.622C233.034 140.648 233.907 141.54 234.335 142.581C234.764 143.623 234.659 144.817 234.675 145.939C234.684 146.656 234.51 147.079 234.31 147.774C234.021 148.78 234.107 149.774 234.104 150.813C234.088 153.807 235.319 156.712 236.748 159.328C238.246 162.074 239.515 164.912 241.201 167.559C242.058 168.904 243.156 170.136 244.111 171.417C244.524 171.968 244.924 172.363 245.4 172.841C245.768 173.207 246.12 173.688 246.526 174.016C246.983 174.386 247.434 174.654 247.917 174.246C248.421 173.819 248.234 173.539 248.926 173.567C250.151 173.618 251.227 175.014 252.005 175.794C252.319 176.109 252.77 176.46 253.052 176.82C253.354 177.205 253.408 177.54 253.649 177.96C254.226 178.96 255.271 179.811 256.261 180.356C256.991 180.757 257.753 181.21 258.562 181.432C259.441 181.675 260.047 182.086 260.857 182.484C262.894 183.478 265.027 184.249 267.106 185.176C268.481 185.787 270.064 186.415 271.245 187.351C272.083 188.017 272.819 188.514 273.727 189.068C274.441 189.502 275.178 189.957 275.876 190.413C276.784 191.005 277.218 192.289 277.263 193.334C277.364 195.72 276.574 197.947 276.031 200.25C275.574 202.187 275.098 204.276 276.088 206.114C277.177 208.131 278.869 209.415 280.202 211.23C280.837 212.097 281.589 212.884 282.135 213.801C282.998 215.244 283.538 216.703 283.953 218.331C284.468 220.354 284.128 222.641 284.163 224.718C284.201 227.053 283.512 229.366 283.35 231.704C283.296 232.465 283.319 233.201 283.306 233.963C283.274 235.928 282.722 237.868 282.414 239.799C281.995 242.43 281.881 244.956 281.846 247.61C281.833 248.623 282.125 249.515 282.357 250.489C282.636 251.671 282.684 253.242 283.446 254.248C284.144 255.169 284.979 254.901 285.807 254.283C286.775 253.563 286.807 252.732 287.308 251.738C287.826 250.719 288.032 249.632 288.464 248.562C289.2 246.734 290.041 244.959 290.923 243.198C291.66 241.723 292.164 240.168 292.841 238.674C293.517 237.18 294.231 235.291 295.354 234.055C296.424 232.88 297.344 231.723 298.604 230.736C300.417 229.312 301.689 227.537 303.172 225.788C305.143 223.463 306.895 220.758 309.18 218.726C310.027 217.971 311.1 217.598 312.046 217.006C313.744 215.939 315.537 214.359 316.674 212.699C317.48 211.517 318.146 210.335 318.68 209.01C319.156 207.831 319.321 206.678 319.61 205.445C319.768 204.764 320.041 204.142 320.121 203.461C320.162 203.094 320.171 202.645 320.067 202.288C319.936 201.858 319.546 201.639 319.54 201.132" fill="#62AF83"/>
<path d="M280.595 72.4095C281.256 71.8488 281.77 71.1225 282.446 70.5523C283.087 70.0139 283.595 69.3895 284.306 68.9563C285.169 68.4307 285.737 67.7394 286.705 67.3444C287.464 67.0354 288.902 66.427 288.54 65.2674C288.105 63.8721 285.709 64.5793 284.639 64.3595C284.007 64.2289 283.363 63.9486 282.709 63.8721C281.894 63.7797 281.148 63.8371 280.335 63.6778C279.085 63.4325 277.631 63.6173 276.355 63.6173C275.831 63.6173 275.27 63.5631 274.749 63.6109C274.105 63.6683 273.464 63.9709 272.832 64.1429C272.058 64.3563 271.334 64.7928 270.591 65.1272C269.849 65.4617 269.179 65.9045 268.462 66.2645C267.579 66.7073 266.97 67.1214 266.002 67.4049C265.03 67.6884 263.77 68.2077 263.329 69.1889C262.79 70.393 262.961 72.2088 261.987 73.2027C260.689 74.5279 259.102 75.3434 257.264 75.3306C255.493 75.3211 253.731 75.4262 252.011 75.1236C251.183 74.9802 250.376 75.0248 249.538 74.856C248.767 74.7031 247.945 74.7955 247.158 74.7955C245.933 74.7955 245.101 74.8241 243.981 75.3944C242.737 76.0283 241.572 76.7227 240.471 77.5637C239.623 78.2104 237.817 80.7939 239.725 81.4246C241.055 81.8643 242.68 81.0041 243.981 81.6795C244.628 82.014 244.705 82.4727 245.028 83.062C245.317 83.5908 245.784 83.8871 246.311 84.1388C247.123 84.5242 248.193 84.4573 249.075 84.3235C250.24 84.1451 250.716 84.0591 251.617 84.9734C252.182 85.5468 252.671 86.1934 253.249 86.7637C254.712 88.2067 256.553 89.379 258.251 90.5258C258.664 90.8062 259.194 90.8731 259.584 91.1502C259.974 91.4274 260.33 91.9753 260.644 92.3703C260.996 92.8131 261.06 93.1603 261.292 93.6413C261.488 94.0491 261.711 94.8041 262.028 95.078C262.498 94.4505 262.463 92.8609 262.555 92.0899C262.641 91.3636 263.034 90.7393 263.098 90.0289C263.209 88.7961 263.098 86.5343 264.389 85.9513C265.849 85.2919 266.703 86.2094 267.979 86.7764C268.677 87.0854 269.265 87.0376 270.017 87.0408C270.947 87.0472 271.166 87.0026 271.727 86.2285C272.226 85.5436 272.623 84.9352 272.959 84.177C273.276 83.4602 273.791 82.6288 274.479 82.2402C275.301 81.7782 276.022 81.3992 276.307 80.4021C276.593 79.405 276.342 77.9874 276.349 76.9553C276.355 75.9232 276.279 75.4995 275.806 74.5916C275.533 74.0692 275.216 72.8491 275.796 72.4222C275.914 72.3362 276.25 72.384 276.393 72.3458C276.853 72.2247 277.209 71.9539 277.688 71.8775C278.628 71.7246 279.231 71.9635 280.065 72.3967" fill="#62AF83"/>
<path d="M63.3775 96.0464C63.3775 93.5585 63.1077 91.1151 64.5899 88.984C65.2945 87.971 66.453 87.5186 67.4338 86.8274C68.1796 86.3017 68.8747 85.6646 69.6492 85.1932C69.9951 84.9829 70.3855 84.8778 70.7347 84.6739C71.1917 84.4063 71.544 84.0177 72.0106 83.7724C73.0739 83.2149 73.6198 82.8995 74.1974 81.7432C74.6323 80.8735 74.6735 79.6534 73.9276 78.9685C72.9025 78.0288 72.0074 77.8759 70.649 77.8855C70.0078 77.8886 69.1255 77.7485 68.5066 77.9396C67.4877 78.255 66.8434 78.8029 66.1388 79.5865C65.485 80.3129 64.8914 81.0647 64.1265 81.6795C63.314 82.3325 62.6189 82.9027 62.0254 83.7756C61.6699 84.298 61.2224 84.8427 60.9304 85.4034C60.6891 85.8685 60.6257 86.3495 60.4194 86.8337C60.1369 87.4995 59.6386 87.9774 59.5751 88.7164C59.5307 89.2516 59.5941 89.8186 59.5941 90.357C59.5941 91.0132 59.4481 91.8287 59.6354 92.4658C59.7751 92.9468 60.1718 93.4438 60.4067 93.8961C60.978 94.9952 61.9429 95.5335 62.8379 96.3236" fill="#62AF83"/>
<path d="M152.029 83.6991C151.594 83.2499 150.975 83.1448 150.496 82.7721C150.102 82.4663 149.899 81.8833 149.455 81.6667C149.201 81.5456 148.95 81.517 148.687 81.3768C148.334 81.1857 148.042 81.0391 147.661 80.8607C146.712 80.4179 145.83 80.2682 144.837 79.9496C143.967 79.6693 143.437 79.2839 142.491 79.2998C141.971 79.3093 141.396 79.2042 140.891 79.3444C140.025 79.5865 139.06 80.3351 138.374 80.8894C137.445 81.6412 137.08 82.7689 137.08 83.9157C137.08 84.5942 136.949 85.3619 137.473 85.8844C138.822 87.2287 140.152 85.3078 141.469 85.2409C142.732 85.1772 143.678 85.448 144.821 85.9513C145.325 86.1743 145.827 86.4387 146.37 86.5533C147.058 86.6999 147.988 86.5406 148.693 86.5406C149.147 86.5406 149.804 86.6808 150.235 86.5087C150.667 86.3367 150.727 85.8461 151.007 85.5563C151.508 85.0402 151.718 85.0243 151.781 84.2151" fill="#62AF83"/>
<path d="M55.0871 208.284C54.6364 208.274 54.4651 208.771 54.1889 209.055C53.8652 209.386 53.4589 209.628 53.1288 209.953C52.4337 210.638 51.8624 211.527 51.307 212.32C50.4532 213.54 50.0342 214.852 49.5518 216.244C49.1138 217.509 48.9583 218.681 48.9615 220.016C48.9615 220.698 48.9932 221.437 49.5581 221.937C49.8978 222.237 51.2213 222.733 51.7418 222.823C52.1862 222.899 52.9384 222.877 53.2717 222.635C53.8874 222.189 54.5127 221.045 54.5444 220.3C54.5888 219.255 54.4587 218.363 54.8015 217.347C55.0237 216.684 55.0681 216.219 55.0808 215.544C55.103 214.282 55.6616 213.161 55.6362 211.912C55.6235 211.281 55.8743 210.842 55.9187 210.236C55.9727 209.51 55.7283 208.981 55.6331 208.281" fill="#62AF83"/>
<path d="M104.451 190.457C104.451 191.413 104.889 193.391 103.921 193.872C103.515 194.076 102.747 194.203 102.306 194.261C101.696 194.34 101.192 194.098 100.751 194.583C99.7794 195.64 101.014 196.914 101.655 197.762C102.582 198.988 103.648 200.039 104.737 201.129C105.197 201.591 105.635 202.075 106.146 202.48C106.657 202.884 107.168 203.435 107.698 203.798C108.92 204.63 110.682 204.391 112.075 204.391C113.202 204.391 114.151 204.48 115.129 203.859C116.265 203.136 117.141 202.081 118.176 201.247C118.925 200.641 119.505 199.836 120.226 199.198C120.673 198.803 121.14 198.603 121.476 198.096C121.911 197.44 122.419 196.446 122.644 195.688C123.136 194.035 123.095 192.111 121.749 190.862C120.159 189.39 117.465 189.24 115.382 189.355C114.351 189.412 113.865 190.059 113.57 191.024C113.259 192.034 112.675 193.13 112.621 194.143C112.596 194.618 112.501 194.904 112.348 195.353C112.123 196.026 112.186 196.793 111.926 197.434C111.434 198.641 109.552 199.39 108.311 198.88C106.943 198.319 106.064 196.73 106.086 195.357C106.095 194.64 105.854 194.331 105.6 193.678C105.267 192.821 105.213 192.091 104.724 191.273" fill="#62AF83"/>
<path d="M151.553 203.145C150.886 203.101 149.912 202.4 149.375 202.053C148.706 201.616 148.115 201.263 147.487 200.759C146.017 199.578 144.364 198.692 142.567 198.16C141.853 197.947 141.11 197.52 140.39 197.395C139.882 197.306 139.273 197.408 138.755 197.408C137.625 197.408 134.737 197.552 135.994 199.479C136.416 200.122 137.6 200.536 138.216 200.97C138.797 201.377 139.485 201.671 140.041 202.097C140.469 202.426 140.987 202.935 141.231 203.407C141.488 203.9 141.38 204.576 141.713 205.025C142.294 205.805 143.351 205.611 144.202 205.608C145.344 205.602 146.49 205.608 147.633 205.608C148.255 205.608 148.88 205.63 149.502 205.608C150.547 205.576 151.194 205.423 151.273 204.238" fill="#62AF83"/>
<path d="M232.65 177.256C232.301 177.256 231.914 177.317 231.574 177.221C231.333 177.151 231.155 176.944 230.93 176.864C230.508 176.715 230.181 176.715 229.755 176.482C229.244 176.205 228.902 176.071 228.495 175.654C228.137 175.284 227.797 174.851 227.327 174.625C226.559 174.255 224.817 174.329 224.163 174.924C223.055 175.934 223.903 177.97 224.655 178.875C225.055 179.356 225.34 179.993 225.617 180.547C225.861 181.041 226.089 181.751 226.505 182.092C226.87 182.391 227.521 182.465 227.962 182.665C228.295 182.818 228.641 182.872 229.013 182.831C230.177 182.704 231.196 182.086 231.812 181.101C232.183 180.509 232.437 179.891 232.453 179.18C232.466 178.69 232.037 177.581 232.44 177.256" fill="#62AF83"/>
<path d="M146.658 146.152C147.182 146.573 145.646 148.449 145.421 148.87C144.935 149.771 144.453 150.825 144.44 151.848C144.43 152.571 144.434 153.154 144.246 153.829C144.126 154.263 144.11 154.613 143.951 155.062C143.764 155.585 143.412 156.091 143.253 156.614C143.218 156.862 143.189 157.107 143.164 157.356C143.047 157.627 142.891 157.875 142.704 158.105C142.497 158.5 142.323 158.917 142.155 159.331C141.767 160.296 141.514 161.287 141.161 162.265C140.91 162.966 140.758 163.479 140.736 164.227C140.72 164.797 140.672 164.871 141.196 165.218C141.539 165.444 142.18 165.852 142.586 165.951C144.767 166.489 146.57 164.135 147.087 162.265C147.433 161.01 147.658 159.519 147.15 158.286C146.643 157.053 146.989 156.002 147.404 154.801C147.658 154.062 148.007 153.221 148.372 152.527C148.89 151.549 149.578 150.759 149.817 149.634C149.953 148.987 149.861 148.287 149.864 147.63C149.864 147.149 150.029 146.506 149.648 146.127C149.363 145.843 148.512 145.773 148.131 145.713C147.709 145.643 147.214 145.499 146.903 145.904" fill="#62AF83"/>
</g>
</g>
<g filter="url(#filter1_d_301_859)">
<path d="M284.846 271.475C284.532 270.979 284.086 270.697 283.637 270.347C283.395 270.159 283.255 270.001 283.09 269.746C282.647 269.065 282.235 268.425 281.512 268.007C281.162 267.805 280.838 267.585 280.489 267.369C280.195 267.185 279.867 267.061 279.567 266.885C279.29 266.722 278.987 266.477 278.865 266.169C278.745 265.865 278.769 265.547 278.59 265.249C277.91 264.109 276.943 263.226 276.043 262.263C275.706 261.903 275.28 261.635 274.94 261.28C274.674 261.001 274.399 260.724 274.111 260.47C273.793 260.191 273.417 259.856 273.168 259.515C272.922 259.177 272.659 258.719 272.242 258.56C271.775 258.382 271.349 258.598 270.965 258.851C270.338 259.265 269.679 259.645 269.067 260.082C268.576 260.432 268.055 260.969 268.19 261.607C268.247 261.881 268.293 262.142 268.399 262.403C268.542 262.749 268.582 263.112 268.714 263.458C268.845 263.798 268.978 264.146 269.08 264.493C269.232 265.005 269.359 265.53 269.485 266.048C269.603 266.523 269.767 267.082 269.289 267.37C268.991 267.549 268.642 267.735 268.379 267.958C267.955 268.316 267.599 268.682 267.126 268.987C266.688 269.27 266.188 269.743 265.656 269.796C265.362 269.825 265.132 269.737 264.868 269.616C264.7 269.538 264.492 269.479 264.336 269.384C263.758 269.034 263.451 268.469 263.083 267.932C262.888 267.648 262.527 267.448 262.25 267.24C261.949 267.013 261.6 266.869 261.25 266.736C260.719 266.534 260.207 266.322 259.681 266.108C259.281 265.946 258.961 265.693 258.529 265.617C258.346 265.585 257.971 265.446 257.818 265.629C257.679 265.795 257.788 266.064 257.782 266.252C257.773 266.652 257.699 267.065 257.724 267.461C257.778 268.343 257.325 269.214 257.626 270.08C257.734 270.389 257.727 270.723 257.81 271.038C257.869 271.258 258.007 271.41 258.091 271.616C258.183 271.836 258.216 272.077 258.334 272.29C258.575 272.724 258.887 273.127 259.156 273.544C259.306 273.779 259.508 273.93 259.659 274.156C260.025 274.705 260.311 275.245 260.498 275.885C260.989 277.558 261.308 279.281 262.273 280.766C262.666 281.37 263.057 281.972 263.45 282.575C263.893 283.257 264.298 284.079 264.883 284.637C265.149 284.891 265.384 285.154 265.635 285.417C265.78 285.571 265.983 285.644 266.141 285.773C266.268 285.877 266.39 286.02 266.508 286.138C266.707 286.337 266.962 286.469 267.168 286.672C267.414 286.914 267.627 287.175 267.882 287.409C268.312 287.804 268.744 288.177 269.164 288.588C269.656 289.07 270.276 289.466 270.703 290.002C270.896 290.245 271.208 290.382 271.422 290.623C271.584 290.802 271.826 290.925 272.02 291.078C272.317 291.313 272.689 291.448 273.026 291.633C273.199 291.728 273.41 291.843 273.604 291.884C273.762 291.919 273.993 291.818 274.092 291.981L274.045 291.907C274.413 291.641 274.368 291.076 274.532 290.701C274.72 290.269 274.93 289.85 275.15 289.432C275.253 289.236 275.315 289.067 275.443 288.881C275.563 288.708 275.628 288.517 275.721 288.329C275.866 288.034 276.012 287.909 276.277 287.734C276.504 287.586 276.731 287.441 276.958 287.292C277.351 287.032 277.788 286.912 278.2 286.699C278.863 286.356 279.483 285.859 280.109 285.451C280.581 285.144 281.106 284.865 281.518 284.482C281.811 284.212 282.171 283.978 282.518 283.777C282.928 283.541 283.408 283.577 283.814 283.356C284.873 282.785 286.014 282.456 287.028 281.789C287.426 281.526 288.463 281.09 288.402 280.477C288.388 280.325 288.316 280.183 288.283 280.034C288.246 279.862 288.221 279.673 288.16 279.508C288.091 279.323 287.944 279.185 287.865 279.007C287.794 278.85 287.768 278.699 287.665 278.549C287.432 278.205 287.324 277.82 287.173 277.43C286.988 276.952 286.841 276.466 286.655 275.988C286.447 275.449 286.266 274.897 286.089 274.347C285.911 273.791 285.764 273.229 285.558 272.678C285.394 272.238 285.102 271.866 284.852 271.471L284.846 271.475ZM262.791 270.236L262.496 270.428C262.307 270.547 262.132 270.728 261.912 270.709C261.693 270.692 261.427 270.549 261.252 270.423C260.835 270.123 260.594 269.603 260.318 269.18C260.107 268.854 259.911 268.553 259.763 268.199C259.696 268.042 259.575 267.917 259.522 267.755C259.489 267.657 259.362 267.406 259.433 267.339C259.721 267.394 259.997 267.735 260.157 267.965C260.326 268.206 260.595 268.357 260.834 268.519C261.003 268.634 261.154 268.776 261.331 268.884C261.531 269.004 261.755 269.071 261.951 269.198C262.34 269.451 262.545 269.855 262.792 270.234L262.791 270.236ZM273.028 261.39C273.146 261.571 273.214 261.721 273.29 261.92C273.348 262.073 273.456 262.191 273.517 262.342C273.597 262.538 273.692 262.683 273.784 262.869C273.888 263.077 274.102 263.45 273.992 263.683L273.622 263.923C272.994 263.879 272.437 263.469 271.865 263.229C271.447 263.055 271.053 262.762 270.659 262.54C270.149 262.253 269.481 261.831 269.415 261.185C269.363 260.667 269.637 260.211 270.128 260.041C270.563 259.892 271.266 259.912 271.67 260.141C271.933 260.29 272.266 260.485 272.504 260.673C272.731 260.855 272.866 261.144 273.026 261.387L273.028 261.39Z" fill="#E8EAED"/>
</g>
<g filter="url(#filter2_d_301_859)">
<path d="M32.21 273.199C32.5154 273.516 32.8856 273.849 33.2806 274.009C33.6755 274.169 34.0334 274.392 34.4314 274.539C34.8078 274.678 35.1873 274.86 35.5822 274.948C35.9 275.017 36.3628 275.01 36.6836 274.97C37.0662 274.919 37.3871 274.486 37.5691 274.178C37.8129 273.761 38.1677 273.384 38.3898 272.957C38.5718 272.605 38.7971 272.285 38.9729 271.933C39.1488 271.582 39.2907 271.221 39.445 270.85C39.5993 270.48 39.6826 270.119 39.7936 269.751C39.9757 269.155 40.2379 268.571 40.3891 267.965C40.4755 267.626 40.6174 267.337 40.7254 267.004C40.8272 266.696 40.8673 266.404 40.9969 266.1C41.1018 265.855 41.2807 265.601 41.3394 265.34C41.3702 265.202 41.3517 265.07 41.3949 264.935C41.4535 264.759 41.58 264.621 41.6664 264.461C41.9194 263.99 42.1261 263.522 42.4717 263.111C42.8604 262.649 43.28 262.225 43.6935 261.789C44.0575 261.406 44.5697 261.167 44.9152 260.772C45.1281 260.527 45.4151 260.329 45.6711 260.128C45.7668 260.053 45.8316 259.987 45.9025 259.893C46.0506 259.692 46.2172 259.572 46.39 259.4C46.7849 259.001 47.1552 258.546 47.4853 258.084C47.8339 257.597 48.0746 257.051 48.3862 256.542C48.9817 255.566 49.5185 254.539 50.0985 253.553C50.2435 253.305 50.4719 253.073 50.6354 252.834C50.7866 252.611 50.8884 252.354 51.0087 252.112C51.2586 251.607 51.5764 251.098 51.7183 250.549C51.8356 250.1 51.9651 249.626 51.996 249.161C52.0053 249.013 51.996 248.853 51.9929 248.702C51.9867 248.476 51.8942 248.307 51.814 248.1C51.6535 247.682 51.4993 247.271 51.2833 246.878C51.0272 246.414 50.8359 245.971 50.4348 245.61C49.8887 245.12 49.1606 244.863 48.4973 244.586C48.2042 244.464 47.9049 244.37 47.618 244.232C47.257 244.056 46.933 243.852 46.5659 243.688C46.1987 243.525 45.8532 243.183 45.594 242.888C45.486 242.762 45.4212 242.731 45.2947 242.649C45.1096 242.533 44.9985 242.354 44.8412 242.203C44.5542 241.93 44.255 241.676 43.9495 241.421C43.1905 240.79 42.4933 240.078 41.7405 239.437C41.4258 239.17 41.0956 238.95 40.7902 238.668C40.5804 238.47 40.4323 238.294 40.2503 238.068C40.0682 237.842 40.0281 237.644 39.9356 237.371C39.8307 237.054 39.7288 236.765 39.6764 236.429C39.6023 235.946 39.482 235.198 39.0963 234.869C38.9359 234.734 38.7107 234.636 38.5101 234.586C38.2695 234.527 38.0566 234.495 37.8252 234.407C37.6555 234.344 37.492 234.275 37.3254 234.209C37.0724 234.112 36.7885 234.112 36.5448 233.993C36.3381 233.892 36.1838 233.707 35.9802 233.607C35.8938 233.563 35.7889 233.566 35.6994 233.516C35.5822 233.45 35.4742 233.318 35.3755 233.227C35.178 233.045 35.0515 232.859 34.8973 232.646C34.8109 232.527 34.706 232.432 34.6257 232.31C34.4962 232.112 34.4375 231.883 34.3326 231.669C34.1784 231.359 33.9624 231.079 33.7927 230.778C33.6385 230.498 33.3824 230.304 33.1818 230.059C32.9813 229.814 32.827 229.764 32.5524 229.641C32.3087 229.534 32.0958 229.352 31.8397 229.274C31.3306 229.117 30.6951 229.132 30.1737 229.076C29.6522 229.019 29.174 229.016 28.668 229.016C28.0849 229.016 27.4586 228.925 26.9125 229.173C26.459 229.377 26.0394 229.657 25.6043 229.892C25.1169 230.156 24.759 230.621 24.7374 231.18C24.725 231.497 24.7806 231.613 25.0058 231.861C25.2989 232.178 25.6105 232.461 25.9622 232.709C26.2646 232.922 26.5484 233.164 26.8693 233.349C27.0698 233.465 27.2241 233.603 27.3444 233.811C27.6252 234.297 27.7332 234.888 27.8566 235.431C28.0078 236.093 27.6746 236.731 27.1532 237.136C26.8847 237.346 26.5916 237.572 26.2985 237.745C25.953 237.949 25.4933 238.04 25.1107 238.159C24.8052 238.253 24.5276 238.41 24.219 238.483C23.9105 238.555 23.639 238.555 23.3366 238.558C22.8461 238.564 22.445 238.316 22.2136 237.874C22.0593 237.578 21.8619 237.333 21.686 237.054C21.4978 236.756 21.3281 236.458 21.0844 236.197C20.7512 235.839 20.2822 235.817 19.8348 235.688C19.6158 235.625 19.3844 235.613 19.1622 235.569C18.9216 235.522 18.6963 235.415 18.4588 235.365C18.2737 235.324 18.0762 235.349 17.888 235.349C17.5548 235.349 17.2154 235.337 16.8822 235.343C16.441 235.352 16.0708 235.447 15.6943 235.669C15.4475 235.814 15.3735 235.93 15.3056 236.206C15.1914 236.662 15.0063 237.252 15.1729 237.71C15.355 238.209 15.6203 238.684 15.9813 239.073C16.2312 239.346 16.4996 239.45 16.8174 239.619C17.1845 239.814 17.5394 240.021 17.9219 240.191C18.2521 240.335 18.5976 240.458 18.9123 240.64C19.4461 240.947 19.9335 241.45 20.0415 242.093C20.1619 242.806 19.6127 243.381 18.9925 243.61C18.5359 243.779 18.0669 243.801 17.5887 243.861C16.8668 243.949 16.1448 244.049 15.4228 244.147C14.9323 244.213 14.4201 244.194 13.9388 244.319C13.257 244.498 12.5628 244.627 11.8809 244.806C11.233 244.976 10.5882 245.098 9.92792 245.205C9.16276 245.33 8.38527 245.541 7.64479 245.767C7.25296 245.886 6.86113 246.009 6.46621 246.125C5.87075 246.301 5.36476 246.586 4.79089 246.816C3.72029 247.246 2.59107 247.563 1.68091 248.319C1.35078 248.596 1.24588 249.173 1.15332 249.578C1.06076 249.984 1.02065 250.338 1.02374 250.731C1.02683 251.192 0.881816 251.83 1.27365 252.141C1.54516 252.354 1.97401 252.448 2.29488 252.586C2.38744 252.624 2.49234 252.646 2.56639 252.715C2.65278 252.797 2.66203 252.922 2.73608 253.004C2.86566 253.158 2.97982 253.177 3.17419 253.227L3.93626 253.302C4.60269 253.34 5.26911 253.384 5.93554 253.431C7.41648 253.531 8.90668 253.754 10.3907 253.789C10.6036 253.792 10.835 253.751 11.0417 253.789C11.2762 253.827 11.5045 254.053 11.668 254.2C11.9611 254.461 12.2326 254.759 12.5103 255.042C13.439 255.984 14.1887 257.039 14.9755 258.1C15.2161 258.426 15.4784 258.765 15.7931 259.023C16.2435 259.39 16.8575 259.682 17.3851 259.889C18.3169 260.26 19.3905 260.542 20.1896 261.174C20.7234 261.594 21.2541 262.006 21.831 262.37C22.2815 262.656 22.7196 262.954 23.17 263.243C23.3767 263.375 23.6236 263.497 23.8087 263.66C24.2591 264.065 24.3332 264.605 24.4504 265.174C24.5831 265.824 24.7559 266.329 25.0953 266.894C25.3668 267.346 25.7123 267.663 26.0702 268.04C26.4898 268.483 26.857 268.979 27.2704 269.425C27.3969 269.563 27.5419 269.66 27.6807 269.783C27.798 269.889 27.8875 270.04 28.0139 270.134C28.1497 270.235 28.3132 270.288 28.449 270.392C28.5847 270.495 28.702 270.624 28.8408 270.728C29.3437 271.105 29.7417 271.572 30.1922 272.006C30.4914 272.295 30.9265 272.499 31.2875 272.693C31.4325 272.772 31.5929 272.813 31.7379 272.888C31.9385 272.992 32.1112 273.158 32.3087 273.274" fill="#E8EAED"/>
</g>
<g filter="url(#filter3_d_301_859)">
<path d="M267.32 122.51C267.517 122.904 267.771 123.332 268.1 123.603C268.428 123.874 268.703 124.194 269.039 124.453C269.357 124.698 269.664 124.985 270.015 125.187C270.298 125.348 270.741 125.48 271.06 125.537C271.44 125.604 271.875 125.286 272.141 125.047C272.499 124.722 272.95 124.468 273.289 124.127C273.568 123.846 273.879 123.608 274.152 123.325C274.425 123.042 274.668 122.74 274.926 122.432C275.184 122.125 275.372 121.805 275.588 121.488C275.94 120.973 276.365 120.495 276.69 119.961C276.874 119.664 277.096 119.431 277.299 119.145C277.488 118.882 277.613 118.615 277.828 118.364C278.001 118.161 278.248 117.972 278.382 117.741C278.453 117.618 278.475 117.487 278.556 117.371C278.665 117.221 278.827 117.127 278.957 117C279.339 116.626 279.676 116.242 280.129 115.952C280.638 115.628 281.165 115.349 281.69 115.056C282.152 114.8 282.712 114.725 283.16 114.451C283.437 114.281 283.77 114.178 284.074 114.063C284.188 114.02 284.27 113.976 284.366 113.908C284.567 113.76 284.762 113.696 284.978 113.583C285.474 113.321 285.964 112.997 286.417 112.655C286.895 112.295 287.288 111.846 287.737 111.454C288.598 110.7 289.417 109.881 290.265 109.113C290.478 108.92 290.765 108.767 290.993 108.588C291.204 108.42 291.378 108.205 291.565 108.01C291.954 107.603 292.41 107.213 292.71 106.731C292.956 106.337 293.221 105.924 293.39 105.489C293.443 105.351 293.482 105.196 293.524 105.051C293.585 104.834 293.548 104.644 293.533 104.422C293.505 103.976 293.481 103.537 293.392 103.098C293.287 102.578 293.237 102.099 292.962 101.634C292.587 101.003 291.969 100.54 291.419 100.078C291.176 99.8733 290.919 99.694 290.686 99.4763C290.394 99.2006 290.146 98.909 289.845 98.6434C289.543 98.3778 289.316 97.9479 289.157 97.5887C289.091 97.4366 289.039 97.3873 288.943 97.2715C288.801 97.1053 288.748 96.9013 288.643 96.7104C288.451 96.364 288.241 96.0318 288.026 95.6978C287.491 94.8686 287.038 93.9799 286.512 93.1436C286.291 92.7948 286.042 92.4864 285.835 92.1254C285.694 91.8739 285.605 91.6618 285.499 91.3917C285.393 91.1215 285.414 90.9208 285.407 90.6324C285.402 90.2984 285.391 89.9924 285.441 89.6561C285.515 89.1726 285.624 88.4235 285.355 87.9936C285.242 87.8168 285.056 87.6566 284.88 87.5486C284.668 87.4197 284.474 87.3261 284.28 87.173C284.137 87.0624 284.001 86.9475 283.862 86.8348C283.65 86.6663 283.379 86.5814 283.182 86.3946C283.015 86.2369 282.923 86.014 282.759 85.8572C282.689 85.7895 282.588 85.7611 282.518 85.6864C282.426 85.5884 282.362 85.4303 282.295 85.3139C282.161 85.081 282.096 84.8665 282.013 84.6166C281.966 84.4769 281.894 84.3556 281.854 84.2148C281.789 83.9873 281.802 83.7511 281.766 83.516C281.712 83.1732 281.589 82.842 281.517 82.5036C281.454 82.1908 281.267 81.9285 281.149 81.6348C281.031 81.3412 280.899 81.2471 280.674 81.0481C280.473 80.8734 280.324 80.6359 280.103 80.4844C279.665 80.1824 279.053 80.0073 278.573 79.7974C278.092 79.5875 277.637 79.4415 277.154 79.2902C276.597 79.1158 276.027 78.8416 275.432 78.915C274.938 78.9741 274.454 79.1152 273.968 79.2098C273.424 79.3157 272.944 79.6521 272.756 80.1789C272.65 80.4778 272.668 80.6053 272.809 80.9094C272.993 81.2996 273.206 81.6624 273.468 82.0043C273.692 82.2985 273.891 82.6141 274.142 82.8868C274.298 83.0576 274.404 83.2356 274.457 83.4693C274.579 84.0177 274.506 84.6132 274.461 85.1684C274.407 85.8458 273.899 86.3544 273.28 86.5849C272.961 86.7054 272.614 86.8334 272.282 86.9105C271.892 87.0019 271.426 86.9513 271.025 86.9508C270.705 86.9493 270.393 87.0161 270.077 86.9927C269.761 86.9693 269.502 86.8881 269.213 86.8007C268.743 86.66 268.434 86.3034 268.346 85.8117C268.287 85.4839 268.172 85.1912 268.088 84.872C267.997 84.5311 267.924 84.1957 267.77 83.8741C267.559 83.4329 267.118 83.2717 266.73 83.0151C266.539 82.8896 266.322 82.8084 266.123 82.7001C265.908 82.5831 265.725 82.4139 265.513 82.2949C265.349 82.2006 265.153 82.1655 264.973 82.1093C264.655 82.0096 264.335 81.8961 264.015 81.8025C263.592 81.6795 263.21 81.6586 262.784 81.7588C262.506 81.8228 262.4 81.9115 262.253 82.1549C262.008 82.5551 261.654 83.063 261.676 83.5503C261.701 84.0811 261.812 84.6129 262.04 85.0923C262.197 85.4277 262.422 85.6069 262.675 85.8637C262.967 86.1592 263.243 86.4631 263.558 86.7393C263.83 86.9758 264.123 87.196 264.369 87.4639C264.786 87.9172 265.101 88.5423 265.011 89.1888C264.913 89.9049 264.217 90.2889 263.557 90.3222C263.07 90.3474 262.616 90.2281 262.142 90.142C261.427 90.01 260.708 89.8899 259.99 89.7669C259.502 89.6831 259.019 89.512 258.522 89.4879C257.818 89.4547 257.117 89.3699 256.413 89.3368C255.744 89.3048 255.092 89.2288 254.43 89.1332C253.662 89.0242 252.858 88.9924 252.083 88.9867C251.674 88.9834 251.263 88.983 250.852 88.9758C250.231 88.9655 249.663 89.0868 249.046 89.1339C247.896 89.2241 246.724 89.189 245.629 89.6389C245.231 89.8038 244.958 90.3237 244.749 90.6825C244.54 91.0413 244.395 91.3679 244.281 91.7433C244.146 92.1846 243.817 92.7495 244.098 93.1632C244.293 93.4482 244.674 93.6663 244.939 93.8941C245.016 93.9577 245.109 94.0101 245.159 94.0981C245.217 94.2019 245.189 94.3245 245.235 94.4245C245.313 94.6101 245.416 94.6622 245.586 94.7683L246.291 95.0681C246.916 95.3033 247.538 95.5446 248.16 95.7888C249.543 96.3276 250.899 96.986 252.304 97.4628C252.507 97.5295 252.74 97.5597 252.926 97.6575C253.138 97.7636 253.288 98.0476 253.4 98.2373C253.602 98.5736 253.772 98.9394 253.952 99.2921C254.557 100.469 254.957 101.7 255.39 102.948C255.522 103.331 255.671 103.733 255.894 104.073C256.214 104.558 256.713 105.02 257.154 105.376C257.933 106.008 258.873 106.599 259.446 107.44C259.83 108.001 260.213 108.552 260.655 109.072C260.999 109.48 261.328 109.895 261.672 110.306C261.829 110.493 262.028 110.684 262.156 110.895C262.465 111.416 262.374 111.954 262.316 112.531C262.248 113.191 262.262 113.725 262.417 114.366C262.54 114.879 262.775 115.285 263.004 115.751C263.272 116.299 263.474 116.882 263.735 117.431C263.815 117.601 263.924 117.737 264.02 117.896C264.1 118.032 264.14 118.203 264.233 118.331C264.332 118.467 264.472 118.567 264.571 118.707C264.669 118.846 264.743 119.004 264.844 119.144C265.211 119.654 265.451 120.22 265.752 120.768C265.951 121.133 266.305 121.458 266.591 121.752C266.706 121.87 266.847 121.957 266.963 122.072C267.123 122.231 267.238 122.441 267.392 122.611" fill="#E8EAED"/>
</g>
<g filter="url(#filter4_d_301_859)">
<path d="M74.7006 51.5452C75.1465 50.5392 75.1231 49.5524 75.1994 48.4892C75.2416 47.9156 75.3416 47.5349 75.5663 47.0117C76.1665 45.6133 76.7347 44.3062 76.6334 42.7467C76.5849 41.9907 76.5899 41.2576 76.5639 40.4902C76.5436 39.8407 76.3964 39.1998 76.3587 38.5499C76.324 37.9503 76.3901 37.2225 76.7428 36.7122C77.0918 36.2108 77.6124 35.9161 77.8896 35.3278C78.9585 33.0838 79.3275 30.6583 79.8904 28.2566C80.101 27.3562 80.076 26.4142 80.2751 25.5158C80.4325 24.8131 80.5788 24.0952 80.6734 23.383C80.778 22.5982 80.9083 21.6633 81.1806 20.9224C81.4504 20.1874 81.8905 19.3015 81.7053 18.4868C81.4954 17.5739 80.7163 17.1344 79.9234 16.801C78.6269 16.255 77.3499 15.6228 76.0332 15.1241C74.977 14.7232 73.5999 14.4717 72.7466 15.3448C72.3783 15.7189 72.0198 16.0622 71.7234 16.4986C71.333 17.0802 70.8095 17.5208 70.408 18.0872C70.0146 18.643 69.6118 19.2124 69.1772 19.733C68.5375 20.5018 67.8528 21.2442 67.1779 21.9803C66.5601 22.6569 65.8595 23.494 64.9136 23.0495C64.3252 22.7724 63.6731 22.4224 63.053 22.2438C62.0543 21.9551 61.1147 21.7829 60.1472 21.3641C59.2511 20.9759 57.9949 20.6887 57.3592 19.9152C57.0078 19.4877 56.9054 19.0376 56.8194 18.5001C56.7655 18.1583 56.6424 17.7729 56.6275 17.4304C56.5716 16.167 57.1312 15.1013 57.5854 13.9693C57.8244 13.3717 57.7606 12.602 57.7967 11.9523C57.8382 11.2489 57.6994 10.5556 57.5424 9.87202C57.3048 8.83521 57.1015 7.81665 56.8868 6.77566C56.7233 5.98424 56.786 5.22339 56.4541 4.47172C56.3132 4.15217 56.1405 3.4233 55.6962 3.37613C55.2927 3.33245 54.9869 3.78239 54.6885 3.96938C54.0555 4.3699 53.3363 4.68438 52.7455 5.13448C51.4281 6.13748 49.6006 6.33681 48.5658 7.70621C48.1973 8.19574 47.6691 8.53268 47.2653 8.98957C46.9836 9.30977 46.8903 9.68286 46.6578 10.0277C46.4097 10.4008 46.0689 10.7027 45.8603 11.1068C45.4353 11.9327 45.131 12.8384 44.7613 13.6916C44.5527 14.1692 44.5262 14.641 44.3316 15.1106C43.8591 16.2523 43.3148 17.258 42.5128 18.2162C40.4176 20.7199 38.0662 23.0086 36.7577 26.0566C36.226 27.2953 35.6955 28.5311 35.1638 29.7698C34.5635 31.1682 33.7037 32.6547 33.4434 34.1465C33.325 34.8239 33.1595 35.4636 33.0115 36.1283C32.9233 36.514 33.0192 36.9054 32.9828 37.2853C32.9535 37.5914 32.8568 37.9315 32.7956 38.2378C32.6936 38.7542 32.7533 39.2875 32.6508 39.8212C32.5299 40.4555 32.3448 41.0588 32.2459 41.6991C32.078 42.7789 31.9466 43.8393 31.7426 44.9211C31.5049 46.1881 31.533 47.5655 31.1421 48.7877C30.9641 49.3415 31.0744 49.9701 30.9228 50.5527C30.8118 50.9917 30.8727 51.4975 30.8368 51.9582C30.7796 52.6654 30.9561 53.3854 31.0181 54.1018C31.0504 54.4692 31.0905 54.9171 31.2271 55.2628C31.3382 55.5451 31.7356 55.7997 31.5858 56.124L31.6506 55.9733C32.4486 56.2703 33.2802 55.612 34.0348 55.4772C34.9039 55.3217 35.7744 55.2122 36.6547 55.1209C37.0674 55.0775 37.394 54.9971 37.817 55.0036C38.2112 55.0118 38.5772 54.9133 38.965 54.8627C39.5767 54.7822 39.9226 54.8781 40.4706 55.1099C40.9371 55.3102 41.3994 55.5121 41.8672 55.7094C42.681 56.0517 43.3224 56.6071 44.0815 57.0276C45.3047 57.7032 46.7241 58.1514 48.0108 58.7037C48.9795 59.1196 49.9607 59.6458 50.9856 59.8897C51.7096 60.064 52.4496 60.3816 53.1237 60.713C53.9159 61.1056 54.3599 61.8913 55.1266 62.294C57.1166 63.3478 58.8155 64.7843 60.9096 65.6692C61.7323 66.0154 63.4898 67.176 64.3807 66.445C64.6028 66.2638 64.7493 66.0046 64.9467 65.7987C65.1755 65.5608 65.4451 65.3264 65.6374 65.0588C65.8538 64.7596 65.9153 64.3869 66.1109 64.0787C66.2811 63.8052 66.4892 63.6074 66.6177 63.2915C66.91 62.5696 67.3968 62.0013 67.8474 61.3615C68.3992 60.5761 69.0033 59.841 69.5551 59.0556C70.1777 58.171 70.8482 57.3139 71.5209 56.4683C72.2016 55.6121 72.924 54.7984 73.5678 53.9053C74.0819 53.1912 74.3583 52.3506 74.7124 51.5503L74.7006 51.5452ZM53.6934 15.9118L53.0872 15.6516C52.7064 15.4811 52.2426 15.3975 52.0427 15.0352C51.8416 14.6757 51.7874 14.1133 51.8022 13.71C51.8353 12.7474 52.3938 11.8317 52.7669 10.9626C53.0537 10.2944 53.3189 9.67655 53.717 9.07717C53.8919 8.80913 53.961 8.49221 54.1572 8.24029C54.2753 8.08795 54.5357 7.62902 54.7118 7.66962C54.9276 8.17537 54.6825 8.95945 54.4905 9.44772C54.2913 9.96091 54.3362 10.5369 54.3326 11.078C54.3297 11.4619 54.2644 11.8435 54.2806 12.2321C54.3011 12.668 54.4306 13.0877 54.4367 13.5245C54.4471 14.3937 54.0314 15.1326 53.6977 15.9101L53.6934 15.9118ZM78.1153 22.6526C77.9554 23.0251 77.7932 23.2881 77.5624 23.6126C77.385 23.862 77.3128 24.1532 77.1413 24.4051C76.9194 24.7335 76.7912 25.0321 76.5973 25.369C76.3827 25.7461 76.0238 26.4673 75.5462 26.5388L74.7884 26.2136C74.2042 25.189 74.2636 23.8946 74.0415 22.7559C73.8784 21.9227 73.9243 21.0041 73.8605 20.1609C73.7772 19.0678 73.7401 17.5884 74.6776 16.8144C75.4291 16.1952 76.4248 16.1465 77.1998 16.7348C77.884 17.256 78.5838 18.3722 78.6477 19.2399C78.6904 19.8044 78.7325 20.5262 78.687 21.0913C78.6401 21.6349 78.3294 22.1457 78.1179 22.6466L78.1153 22.6526Z" fill="#E8EAED"/>
</g>
<defs>
<filter id="filter0_d_301_859" x="44.4441" y="50" width="210.916" height="211.66" filterUnits="userSpaceOnUse" color-interpolation-filters="sRGB">
<feFlood flood-opacity="0" result="BackgroundImageFix"/>
<feColorMatrix in="SourceAlpha" type="matrix" values="0 0 0 0 0 0 0 0 0 0 0 0 0 0 0 0 0 0 127 0" result="hardAlpha"/>
<feOffset/>
<feGaussianBlur stdDeviation="2"/>
<feComposite in2="hardAlpha" operator="out"/>
<feColorMatrix type="matrix" values="0 0 0 0 0.909804 0 0 0 0 0.917647 0 0 0 0 0.929412 0 0 0 1 0"/>
<feBlend mode="normal" in2="BackgroundImageFix" result="effect1_dropShadow_301_859"/>
<feBlend mode="normal" in="SourceGraphic" in2="effect1_dropShadow_301_859" result="shape"/>
</filter>
<filter id="filter1_d_301_859" x="256.522" y="257.495" width="32.883" height="35.4856" filterUnits="userSpaceOnUse" color-interpolation-filters="sRGB">
<feFlood flood-opacity="0" result="BackgroundImageFix"/>
<feColorMatrix in="SourceAlpha" type="matrix" values="0 0 0 0 0 0 0 0 0 0 0 0 0 0 0 0 0 0 127 0" result="hardAlpha"/>
<feOffset/>
<feGaussianBlur stdDeviation="0.5"/>
<feComposite in2="hardAlpha" operator="out"/>
<feColorMatrix type="matrix" values="0 0 0 0 0.670588 0 0 0 0 0.592157 0 0 0 0 0.54902 0 0 0 0.25 0"/>
<feBlend mode="normal" in2="BackgroundImageFix" result="effect1_dropShadow_301_859"/>
<feBlend mode="normal" in="SourceGraphic" in2="effect1_dropShadow_301_859" result="shape"/>
</filter>
<filter id="filter2_d_301_859" x="0" y="228" width="53" height="48" filterUnits="userSpaceOnUse" color-interpolation-filters="sRGB">
<feFlood flood-opacity="0" result="BackgroundImageFix"/>
<feColorMatrix in="SourceAlpha" type="matrix" values="0 0 0 0 0 0 0 0 0 0 0 0 0 0 0 0 0 0 127 0" result="hardAlpha"/>
<feOffset/>
<feGaussianBlur stdDeviation="0.5"/>
<feComposite in2="hardAlpha" operator="out"/>
<feColorMatrix type="matrix" values="0 0 0 0 0.670588 0 0 0 0 0.592157 0 0 0 0 0.54902 0 0 0 0.25 0"/>
<feBlend mode="normal" in2="BackgroundImageFix" result="effect1_dropShadow_301_859"/>
<feBlend mode="normal" in="SourceGraphic" in2="effect1_dropShadow_301_859" result="shape"/>
</filter>
<filter id="filter3_d_301_859" x="242.987" y="77.9028" width="51.5706" height="48.6436" filterUnits="userSpaceOnUse" color-interpolation-filters="sRGB">
<feFlood flood-opacity="0" result="BackgroundImageFix"/>
<feColorMatrix in="SourceAlpha" type="matrix" values="0 0 0 0 0 0 0 0 0 0 0 0 0 0 0 0 0 0 127 0" result="hardAlpha"/>
<feOffset/>
<feGaussianBlur stdDeviation="0.5"/>
<feComposite in2="hardAlpha" operator="out"/>
<feColorMatrix type="matrix" values="0 0 0 0 0.670588 0 0 0 0 0.592157 0 0 0 0 0.54902 0 0 0 0.25 0"/>
<feBlend mode="normal" in2="BackgroundImageFix" result="effect1_dropShadow_301_859"/>
<feBlend mode="normal" in="SourceGraphic" in2="effect1_dropShadow_301_859" result="shape"/>
</filter>
<filter id="filter4_d_301_859" x="29.8255" y="2.37317" width="52.924" height="65.309" filterUnits="userSpaceOnUse" color-interpolation-filters="sRGB">
<feFlood flood-opacity="0" result="BackgroundImageFix"/>
<feColorMatrix in="SourceAlpha" type="matrix" values="0 0 0 0 0 0 0 0 0 0 0 0 0 0 0 0 0 0 127 0" result="hardAlpha"/>
<feOffset/>
<feGaussianBlur stdDeviation="0.5"/>
<feComposite in2="hardAlpha" operator="out"/>
<feColorMatrix type="matrix" values="0 0 0 0 0.670588 0 0 0 0 0.592157 0 0 0 0 0.54902 0 0 0 0.25 0"/>
<feBlend mode="normal" in2="BackgroundImageFix" result="effect1_dropShadow_301_859"/>
<feBlend mode="normal" in="SourceGraphic" in2="effect1_dropShadow_301_859" result="shape"/>
</filter>
<radialGradient id="paint0_radial_301_859" cx="0" cy="0" r="1" gradientUnits="userSpaceOnUse" gradientTransform="translate(197.506 191.196) rotate(49.9033) scale(78.5227 63.5642)">
<stop stop-color="#6ABAFF"/>
<stop offset="1" stop-color="#88CCF2"/>
</radialGradient>
<radialGradient id="paint1_radial_301_859" cx="0" cy="0" r="1" gradientUnits="userSpaceOnUse" gradientTransform="translate(58.7475 201.531) rotate(49.9033) scale(67.0657 54.2898)">
<stop stop-color="#69BAFF"/>
<stop offset="1" stop-color="#88CCF2"/>
</radialGradient>
<radialGradient id="paint2_radial_301_859" cx="0" cy="0" r="1" gradientUnits="userSpaceOnUse" gradientTransform="translate(174.472 82.8717) rotate(0.461686) scale(206.742 26.0644)">
<stop stop-color="#3CA5FF"/>
<stop offset="0.92" stop-color="#64B5E2"/>
</radialGradient>
<radialGradient id="paint3_radial_301_859" cx="0" cy="0" r="1" gradientUnits="userSpaceOnUse" gradientTransform="translate(182.54 82.9398) rotate(0.441613) scale(214.162 26.0644)">
<stop stop-color="#6FBDFF"/>
<stop offset="0.92" stop-color="#88CCF2"/>
</radialGradient>
</defs>
</svg>
