<svg width="39" height="42" viewBox="0 0 39 42" fill="none" xmlns="http://www.w3.org/2000/svg">
<g clip-path="url(#clip0_406_1851)" filter="url(#filter0_d_406_1851)">
<g filter="url(#filter1_d_406_1851)">
<path d="M35 17.2789C35 8.83755 28.0556 2 19.5 2C10.9444 2 4 8.83755 4 17.2789C4 25.0161 9.83333 31.3999 17.3968 32.4091L17.4841 32.5499L19.5 35.9922L21.5159 32.5499L21.6032 32.4091C29.1667 31.3999 35 25.0083 35 17.2789Z" fill="url(#paint0_radial_406_1851)"/>
</g>
<g clip-path="url(#clip1_406_1851)">
<path d="M10.75 17.5C10.75 18.6491 10.9763 19.7869 11.4161 20.8485C11.8558 21.9101 12.5003 22.8747 13.3128 23.6872C14.1253 24.4997 15.0899 25.1442 16.1515 25.5839C17.2131 26.0237 18.3509 26.25 19.5 26.25C20.6491 26.25 21.7869 26.0237 22.8485 25.5839C23.9101 25.1442 24.8747 24.4997 25.6872 23.6872C26.4997 22.8747 27.1442 21.9101 27.5839 20.8485C28.0237 19.7869 28.25 18.6491 28.25 17.5C28.25 16.3509 28.0237 15.2131 27.5839 14.1515C27.1442 13.0899 26.4997 12.1253 25.6872 11.3128C24.8747 10.5003 23.9101 9.85578 22.8485 9.41605C21.7869 8.97633 20.6491 8.75 19.5 8.75C18.3509 8.75 17.2131 8.97633 16.1515 9.41605C15.0899 9.85578 14.1253 10.5003 13.3128 11.3128C12.5003 12.1253 11.8558 13.0899 11.4161 14.1515C10.9763 15.2131 10.75 16.3509 10.75 17.5Z" stroke="white" stroke-width="2" stroke-linecap="round" stroke-linejoin="round"/>
<path d="M17.5555 17.5H19.5C20.0157 17.5 20.5103 17.2951 20.8749 16.9305C21.2396 16.5658 21.4444 16.0712 21.4444 15.5555C21.4444 15.0398 21.2396 14.5453 20.8749 14.1806C20.5103 13.8159 20.0157 13.6111 19.5 13.6111H17.5555V21.3889M21.4444 21.3889L18.5278 17.5" stroke="white" stroke-width="2" stroke-linecap="round" stroke-linejoin="round"/>
</g>
</g>
<defs>
<filter id="filter0_d_406_1851" x="0" y="0" width="39" height="42" filterUnits="userSpaceOnUse" color-interpolation-filters="sRGB">
<feFlood flood-opacity="0" result="BackgroundImageFix"/>
<feColorMatrix in="SourceAlpha" type="matrix" values="0 0 0 0 0 0 0 0 0 0 0 0 0 0 0 0 0 0 127 0" result="hardAlpha"/>
<feOffset dy="2"/>
<feGaussianBlur stdDeviation="2"/>
<feComposite in2="hardAlpha" operator="out"/>
<feColorMatrix type="matrix" values="0 0 0 0 0 0 0 0 0 0 0 0 0 0 0 0 0 0 0.25 0"/>
<feBlend mode="normal" in2="BackgroundImageFix" result="effect1_dropShadow_406_1851"/>
<feBlend mode="normal" in="SourceGraphic" in2="effect1_dropShadow_406_1851" result="shape"/>
</filter>
<filter id="filter1_d_406_1851" x="0" y="0" width="39" height="41.9922" filterUnits="userSpaceOnUse" color-interpolation-filters="sRGB">
<feFlood flood-opacity="0" result="BackgroundImageFix"/>
<feColorMatrix in="SourceAlpha" type="matrix" values="0 0 0 0 0 0 0 0 0 0 0 0 0 0 0 0 0 0 127 0" result="hardAlpha"/>
<feOffset dy="2"/>
<feGaussianBlur stdDeviation="2"/>
<feComposite in2="hardAlpha" operator="out"/>
<feColorMatrix type="matrix" values="0 0 0 0 0 0 0 0 0 0 0 0 0 0 0 0 0 0 0.25 0"/>
<feBlend mode="normal" in2="BackgroundImageFix" result="effect1_dropShadow_406_1851"/>
<feBlend mode="normal" in="SourceGraphic" in2="effect1_dropShadow_406_1851" result="shape"/>
</filter>
<radialGradient id="paint0_radial_406_1851" cx="0" cy="0" r="1" gradientUnits="userSpaceOnUse" gradientTransform="translate(19.5 19) scale(19.3016 19.0262)">
<stop stop-color="#65C8FF"/>
<stop offset="0.763542" stop-color="#61B6FF"/>
<stop offset="1" stop-color="#3CA5FF"/>
</radialGradient>
<clipPath id="clip0_406_1851">
<rect width="31" height="34" fill="white" transform="translate(4 2)"/>
</clipPath>
<clipPath id="clip1_406_1851">
<rect width="21" height="21" fill="white" transform="translate(9 7)"/>
</clipPath>
</defs>
</svg>
