<svg width="39" height="42" viewBox="0 0 39 42" fill="none" xmlns="http://www.w3.org/2000/svg">
<g clip-path="url(#clip0_101_508)" filter="url(#filter0_d_101_508)">
<g filter="url(#filter1_d_101_508)">
<path d="M35 17.2789C35 8.83755 28.0556 2 19.5 2C10.9444 2 4 8.83755 4 17.2789C4 25.0161 9.83333 31.3999 17.3968 32.4091L17.4841 32.5499L19.5 35.9922L21.5159 32.5499L21.6032 32.4091C29.1667 31.3999 35 25.0083 35 17.2789Z" fill="url(#paint0_radial_101_508)"/>
</g>
<path d="M27.119 24.8988H11.873C11.1904 24.8988 10.6349 24.3511 10.6349 23.6783V13.3672C10.6349 13.2264 10.7539 13.1091 10.8968 13.1091H28.0952C28.2381 13.1091 28.3571 13.2264 28.3571 13.3672V23.6783C28.3571 24.3511 27.8016 24.8988 27.119 24.8988Z" fill="#FAF4EE"/>
<path d="M26.9126 24.8988H12.1031C11.3491 24.8988 10.738 24.2964 10.738 23.5532V21.7147C10.738 21.5035 10.9126 21.3314 11.1269 21.3314H27.873C28.0872 21.3314 28.2618 21.5035 28.2618 21.7147V23.5532C28.2618 24.2964 27.6507 24.8988 26.8968 24.8988H26.9126Z" fill="#E0D7D2"/>
<path d="M22.9841 10.5587C23.0397 9.44777 22.1666 8.5481 21.0476 8.5481H17.6111C16.4841 8.5481 15.5714 9.44777 15.5714 10.5587V24.8988H17.0555V10.4335C17.0555 9.79982 17.5635 9.24437 18.2063 9.23654C18.2063 9.23654 18.2143 9.23654 18.2222 9.23654H20.3333C20.9841 9.23654 21.5159 9.7607 21.5159 10.41V24.8988H23V10.5665L22.9841 10.5587Z" fill="#72A16D"/>
<path d="M28.1031 13.1013V23.6627C28.1031 24.2025 27.6587 24.6328 27.119 24.6328H11.8809C11.3333 24.6328 10.8968 24.1947 10.8968 23.6627V13.1013H10.6349V23.6627C10.6349 24.3433 11.1984 24.8988 11.8889 24.8988H27.119C27.8095 24.8988 28.373 24.3433 28.373 23.6627V13.1013H28.1111H28.1031Z" fill="#72A16D"/>
</g>
<defs>
<filter id="filter0_d_101_508" x="0" y="0" width="39" height="42" filterUnits="userSpaceOnUse" color-interpolation-filters="sRGB">
<feFlood flood-opacity="0" result="BackgroundImageFix"/>
<feColorMatrix in="SourceAlpha" type="matrix" values="0 0 0 0 0 0 0 0 0 0 0 0 0 0 0 0 0 0 127 0" result="hardAlpha"/>
<feOffset dy="2"/>
<feGaussianBlur stdDeviation="2"/>
<feComposite in2="hardAlpha" operator="out"/>
<feColorMatrix type="matrix" values="0 0 0 0 0 0 0 0 0 0 0 0 0 0 0 0 0 0 0.25 0"/>
<feBlend mode="normal" in2="BackgroundImageFix" result="effect1_dropShadow_101_508"/>
<feBlend mode="normal" in="SourceGraphic" in2="effect1_dropShadow_101_508" result="shape"/>
</filter>
<filter id="filter1_d_101_508" x="0" y="0" width="39" height="41.9922" filterUnits="userSpaceOnUse" color-interpolation-filters="sRGB">
<feFlood flood-opacity="0" result="BackgroundImageFix"/>
<feColorMatrix in="SourceAlpha" type="matrix" values="0 0 0 0 0 0 0 0 0 0 0 0 0 0 0 0 0 0 127 0" result="hardAlpha"/>
<feOffset dy="2"/>
<feGaussianBlur stdDeviation="2"/>
<feComposite in2="hardAlpha" operator="out"/>
<feColorMatrix type="matrix" values="0 0 0 0 0 0 0 0 0 0 0 0 0 0 0 0 0 0 0.25 0"/>
<feBlend mode="normal" in2="BackgroundImageFix" result="effect1_dropShadow_101_508"/>
<feBlend mode="normal" in="SourceGraphic" in2="effect1_dropShadow_101_508" result="shape"/>
</filter>
<radialGradient id="paint0_radial_101_508" cx="0" cy="0" r="1" gradientUnits="userSpaceOnUse" gradientTransform="translate(19.5 19) scale(19.3016 19.0262)">
<stop stop-color="#A7C588"/>
<stop offset="0.55" stop-color="#A3C187"/>
<stop offset="0.79" stop-color="#9FBD86"/>
<stop offset="0.9" stop-color="#9DBB84"/>
<stop offset="0.94" stop-color="#96B781"/>
<stop offset="0.97" stop-color="#8AB07A"/>
<stop offset="0.99" stop-color="#79A571"/>
<stop offset="1" stop-color="#72A16D"/>
</radialGradient>
<clipPath id="clip0_101_508">
<rect width="31" height="34" fill="white" transform="translate(4 2)"/>
</clipPath>
</defs>
</svg>
