<svg width="67" height="67" viewBox="0 0 67 67" fill="none" xmlns="http://www.w3.org/2000/svg">
<g filter="url(#filter0_d_643_1347)">
<circle cx="33.2647" cy="33.2647" r="29.2647" fill="#FAF5EF"/>
</g>
<g filter="url(#filter1_d_643_1347)">
<path d="M36.8517 11.7325C36.6238 11.0885 35.54 10.8444 34.7263 11.0977C33.496 11.4822 32.5521 12.5503 32.3634 12.9867C32.1225 12.5381 31.2633 11.6165 30.1599 11.2716C29.3885 11.0305 28.3665 11.2594 28.1485 11.8728C27.9304 12.4832 28.6106 13.2217 29.3755 13.4842C30.544 13.887 31.5302 13.7528 32.0477 13.5178V17.5278C32.2397 17.5034 32.4578 17.4882 32.6888 17.4882C32.9037 17.4882 33.1087 17.5004 33.291 17.5217L32.5684 13.3896C33.0534 13.6856 34.186 13.9084 35.553 13.4384C36.357 13.1607 37.0762 12.3794 36.8484 11.7355L36.8517 11.7325Z" fill="#75A66F"/>
<path d="M38.2707 18.2603V31.8469H33.4536V17.3691C33.1379 17.3539 32.819 17.3447 32.5 17.3447C32.181 17.3447 31.8621 17.3539 31.5464 17.3691V31.8469H26.7293V18.2603C19.3378 20.662 14 27.55 14 35.6739C14 45.7967 22.2833 54 32.5 54C42.7167 54 51 45.7937 51 35.6739C51 27.55 45.6622 20.662 38.2707 18.2603Z" fill="#68BBEA"/>
<path d="M43.6897 42.1498C43.6897 48.1619 38.6807 53.1547 32.4999 53.1547C26.3191 53.1547 21.3101 48.1619 21.3101 42.1498C21.3101 36.1378 26.3191 31.261 32.4999 31.261C38.6807 31.261 43.6897 36.1347 43.6897 42.1498Z" fill="#E0D2D0"/>
<path d="M31.5463 31.8469V17.3691C29.8701 17.4546 28.2557 17.7628 26.7292 18.2603V31.8469H31.5463Z" fill="#604C3F"/>
<path d="M38.2706 31.8469V18.2603C36.7409 17.7628 35.1266 17.4546 33.4536 17.3691V31.8469H38.2706Z" fill="#604C3F"/>
<path d="M40.995 31.261H24.0052C20.3761 31.261 17.4338 34.0198 17.4338 37.4226V38.2924C17.4338 41.6951 20.3761 44.454 24.0052 44.454H30.0623C30.9671 44.454 31.6604 43.6361 32.0704 42.9769C32.2625 42.6717 32.7377 42.6717 32.9297 42.9769C33.3431 43.6361 34.0363 44.454 34.9379 44.454H40.995C44.624 44.454 47.5663 41.6951 47.5663 38.2924V37.4226C47.5663 34.0198 44.624 31.261 40.995 31.261Z" fill="#101223"/>
<path d="M34.2965 48.6045C33.1704 49.1538 31.8262 49.1538 30.7 48.6045C30.6186 48.5648 30.5698 48.4885 30.5698 48.4031C30.5698 48.2383 30.7521 48.1314 30.9116 48.1986C31.9205 48.6228 33.076 48.6228 34.0882 48.1986C34.2477 48.1314 34.43 48.2383 34.43 48.4031C34.43 48.4885 34.3779 48.5648 34.2998 48.6045H34.2965Z" fill="#F79C9C"/>
</g>
<defs>
<filter id="filter0_d_643_1347" x="0" y="0" width="66.5293" height="66.5293" filterUnits="userSpaceOnUse" color-interpolation-filters="sRGB">
<feFlood flood-opacity="0" result="BackgroundImageFix"/>
<feColorMatrix in="SourceAlpha" type="matrix" values="0 0 0 0 0 0 0 0 0 0 0 0 0 0 0 0 0 0 127 0" result="hardAlpha"/>
<feOffset/>
<feGaussianBlur stdDeviation="2"/>
<feComposite in2="hardAlpha" operator="out"/>
<feColorMatrix type="matrix" values="0 0 0 0 0 0 0 0 0 0 0 0 0 0 0 0 0 0 0.25 0"/>
<feBlend mode="normal" in2="BackgroundImageFix" result="effect1_dropShadow_643_1347"/>
<feBlend mode="normal" in="SourceGraphic" in2="effect1_dropShadow_643_1347" result="shape"/>
</filter>
<filter id="filter1_d_643_1347" x="13" y="9.99927" width="39" height="45.0007" filterUnits="userSpaceOnUse" color-interpolation-filters="sRGB">
<feFlood flood-opacity="0" result="BackgroundImageFix"/>
<feColorMatrix in="SourceAlpha" type="matrix" values="0 0 0 0 0 0 0 0 0 0 0 0 0 0 0 0 0 0 127 0" result="hardAlpha"/>
<feOffset/>
<feGaussianBlur stdDeviation="0.5"/>
<feComposite in2="hardAlpha" operator="out"/>
<feColorMatrix type="matrix" values="0 0 0 0 0 0 0 0 0 0 0 0 0 0 0 0 0 0 0.25 0"/>
<feBlend mode="normal" in2="BackgroundImageFix" result="effect1_dropShadow_643_1347"/>
<feBlend mode="normal" in="SourceGraphic" in2="effect1_dropShadow_643_1347" result="shape"/>
</filter>
</defs>
</svg>
